<?xml version="1.0" encoding="UTF-8" standalone="no"?>
<!-- Creator: CorelDRAW -->

<svg
   xml:space="preserve"
   width="57.649605mm"
   height="29.470503mm"
   style="clip-rule:evenodd;fill-rule:evenodd;image-rendering:optimizeQuality;shape-rendering:geometricPrecision;text-rendering:geometricPrecision"
   viewBox="0 0 57.649605 29.470503"
   version="1.1"
   id="svg65"
   xmlns="http://www.w3.org/2000/svg"
   xmlns:svg="http://www.w3.org/2000/svg">
 <defs
   id="defs1"><style
     type="text/css"
     id="style1">
   <![CDATA[
    .fil6 {fill:#575453}
    .fil0 {fill:#616F5C}
    .fil5 {fill:#813A22}
    .fil1 {fill:#C95D61}
    .fil3 {fill:#F1DFC3}
    .fil2 {fill:#F4EFE0}
    .fil4 {fill:white}
   ]]>
  </style></defs>
 <g
   id="Слой_x0020_1"
   transform="translate(-16.257399,-12.9583)">
  <metadata
   id="CorelCorpID_0Corel-Layer" />
  <path
   class="fil0"
   d="m 34.9348,17.7382 c 0.1208,0.0193 0.2407,0.0436 0.3599,0.0725 L 35.11,17.6187 c -0.0541,0.0418 -0.1128,0.082 -0.1752,0.1195 z m -1.3656,-0.0169 c -0.2002,-0.2211 -0.4091,-0.3924 -0.5321,-0.659 0.163,-0.0408 0.1464,-0.0386 0.3068,-0.0958 -0.2402,-0.3698 -0.3287,-0.7448 -0.4315,-1.101 0.3939,-0.0747 0.7646,-0.0784 1.1997,0.128 -0.017,-0.116 -0.0289,-0.1985 -0.0766,-0.2929 0.359,0.0319 0.6218,0.2129 0.9646,0.3649 0.0043,-0.0851 0.0279,-0.1559 0.0677,-0.2293 0.3711,0.1144 0.5726,0.3378 0.7293,0.6017 0.0567,-0.0757 0.0634,-0.1444 0.1504,-0.2417 0.17,0.0765 0.2947,0.1811 0.385,0.3058 0.0351,-0.0747 0.0768,-0.1483 0.128,-0.2211 0.0813,0.09 0.1478,0.1692 0.2274,0.2462 0.0568,-0.303 0.3054,-0.5781 0.5407,-0.771 0.0646,0.0666 0.1073,0.1643 0.1348,0.2515 0.1754,-0.2338 0.3481,-0.4012 0.6331,-0.5373 0.0427,0.0973 0.0601,0.1204 0.1006,0.2052 0.175,-0.1544 0.3627,-0.3115 0.6883,-0.363 0.0785,0.3154 0.0902,0.6312 -0.1216,0.8858 0.1076,0.0051 0.2003,-2e-4 0.3209,0.002 -0.0267,0.2439 -0.1395,0.5316 -0.3166,0.673 0.0711,0.0257 0.2086,0.0514 0.3056,0.0715 -0.0913,0.257 -0.2148,0.4805 -0.4458,0.6196 0.0604,0.041 0.1354,0.092 0.2086,0.1306 -0.1626,0.3109 -0.3159,0.4343 -0.519,0.5807 0.0069,0.0048 0.0139,0.0093 0.0206,0.0139 -0.4147,-0.1075 -0.8411,-0.1564 -1.2662,-0.1473 -0.0172,-0.0098 -0.0341,-0.0203 -0.0505,-0.0315 l 0.3569,-0.4293 c 0.3315,0.0664 0.7108,0.0171 1.0084,-0.1221 -0.3164,0.0238 -0.6893,0.0319 -0.8807,-0.0758 l 0.3527,-0.4547 c 0.2536,0.082 0.4736,0.0379 0.6874,-0.1244 -0.2369,0.021 -0.379,0.0494 -0.605,-0.0248 l 0.2532,-0.4084 c 0.17,0.0587 0.3831,0.0558 0.5604,-0.0856 -0.1745,-0.0048 -0.2736,-0.0381 -0.4133,-0.0765 0.1147,-0.1952 0.1995,-0.4108 0.3122,-0.6189 -0.1428,0.1874 -0.3265,0.3698 -0.4693,0.5577 -0.159,-0.0744 -0.1695,-0.1386 -0.223,-0.3002 -0.0541,0.1568 -0.014,0.3209 0.1019,0.4567 L 37.71,16.8132 c -0.2065,-0.1178 -0.2837,-0.2615 -0.3603,-0.4847 -0.0589,0.2105 -0.0037,0.4646 0.2003,0.649 l -0.3137,0.3678 c -0.2126,-0.1562 -0.3088,-0.4155 -0.4196,-0.685 -0.0746,0.3596 0.0732,0.6084 0.2747,0.8598 l -0.3222,0.3959 c -0.0273,-0.0269 -0.0533,-0.0543 -0.0781,-0.0827 -0.027,0.0636 -0.0611,0.123 -0.1039,0.1764 0.0199,0.0255 0.041,0.0508 0.0631,0.0756 -0.0205,0.0293 -0.0422,0.0565 -0.0649,0.0815 -0.0837,0.0086 -0.1675,0.02 -0.2507,0.0334 -0.208,-0.108 -0.4227,-0.1989 -0.6414,-0.2735 -0.0057,-0.0488 -0.0056,-0.0965 -6e-4,-0.1402 0.0736,0.0089 0.1452,0.0079 0.2167,0.0056 0.0054,-0.0081 0.0105,-0.0162 0.0157,-0.0246 -0.0818,-0.226 -0.0665,-0.4594 0.0092,-0.7054 0.0389,0.0017 0.1026,0.0266 0.1526,0.0563 -0.0111,-0.1388 -0.0524,-0.2757 -0.1305,-0.4001 -0.008,0.4062 -0.1105,0.7417 -0.3408,1.0116 l -0.2961,-0.2938 c 0.1476,-0.258 0.2094,-0.7564 -0.0631,-1.003 0.0248,0.283 -0.0141,0.5923 -0.1643,0.8338 l -0.4406,-0.3574 c 0.1645,-0.2601 0.0828,-0.5858 -0.0428,-0.7529 -0.0206,0.2056 -0.0716,0.4325 -0.2151,0.6055 -0.2815,-0.1951 -0.5941,-0.3688 -0.8988,-0.4925 0.2509,0.2162 0.54,0.4608 0.7934,0.6935 -0.1551,0.208 -0.4475,0.2849 -0.6477,0.4154 0.312,0.0557 0.6301,-0.0756 0.8396,-0.258 l 0.4001,0.3125 c -0.1006,0.0927 -0.2165,0.1814 -0.3431,0.2582 -0.3226,-0.0236 -0.6474,-0.0136 -0.9679,0.0301 z"
   id="path1" />
  <path
   class="fil1"
   d="m 40.1665,20.7951 c -0.058,0.0335 -0.2477,-0.1864 -0.4234,-0.4913 -0.176,-0.3047 -0.2711,-0.579 -0.2134,-0.6125 0.0582,-0.0335 0.2479,0.1867 0.4237,0.4914 0.1756,0.3049 0.2712,0.5791 0.2131,0.6124 z m -1.3182,0.2022 c -0.0652,0.017 -0.1897,-0.2456 -0.2786,-0.5859 -0.0889,-0.3405 -0.1081,-0.6304 -0.0436,-0.6473 0.065,-0.0169 0.1897,0.2455 0.2784,0.586 0.0891,0.3402 0.1084,0.63 0.0438,0.6472 z m -1.6049,0.0032 c -0.0672,0.0019 -0.1297,-0.2816 -0.1399,-0.6333 -0.0102,-0.3518 0.0358,-0.6386 0.1027,-0.6406 0.067,-0.0018 0.1297,0.2818 0.1398,0.6337 0.0104,0.3514 -0.0358,0.6382 -0.1026,0.6402 z M 35.8247,20.799 c -0.0662,-0.0126 -0.0674,-0.303 -0.003,-0.6489 0.0643,-0.3459 0.1701,-0.6166 0.2359,-0.6044 0.0656,0.0124 0.0672,0.3028 0.0027,0.6485 -0.0642,0.3462 -0.17,0.6167 -0.2356,0.6048 z m -1.186,-0.0393 c -0.0663,-0.012 -0.0673,-0.3024 -0.0031,-0.6485 0.0644,-0.3457 0.1702,-0.6163 0.2358,-0.6043 0.0658,0.0123 0.0672,0.303 0.0028,0.6487 -0.0641,0.3458 -0.1699,0.6164 -0.2355,0.6041 z m -1.6323,-0.4983 c -0.0547,-0.0381 0.0638,-0.3033 0.2651,-0.5918 0.2012,-0.2888 0.4091,-0.4917 0.4639,-0.4536 0.055,0.0386 -0.0635,0.3037 -0.2649,0.5924 -0.2011,0.2885 -0.409,0.4914 -0.4641,0.453 z m -1.33,-0.7011 c -0.0356,-0.057 0.177,-0.2549 0.4746,-0.4421 0.2978,-0.1875 0.5685,-0.2935 0.6039,-0.2369 0.0357,0.0568 -0.1767,0.2548 -0.4745,0.4422 -0.2977,0.1872 -0.5683,0.2933 -0.604,0.2368 z m 0.5807,8.2708 c -0.067,0.0028 -0.1314,-0.2804 -0.1435,-0.6321 -0.0124,-0.3518 0.0321,-0.6391 0.0989,-0.6412 0.067,-0.002 0.1314,0.2812 0.1435,0.6329 0.0124,0.3514 -0.032,0.6387 -0.0989,0.6404 z m 5.451,0.6977 c -0.0618,-0.0262 -3e-4,-0.3104 0.137,-0.6343 0.1372,-0.3235 0.2986,-0.5653 0.3605,-0.5391 0.0616,0.0262 3e-4,0.31 -0.1371,0.6339 -0.1373,0.3241 -0.2987,0.5653 -0.3604,0.5395 z m -1.0659,0.4926 c -0.0618,-0.0262 -3e-4,-0.3104 0.137,-0.6339 0.1372,-0.3242 0.2988,-0.5656 0.3603,-0.5395 0.0619,0.0262 3e-4,0.3104 -0.1369,0.6339 -0.1373,0.3239 -0.2989,0.5657 -0.3604,0.5395 z m -1.0657,-0.1236 c -0.0662,-0.0107 -0.0729,-0.3012 -0.0152,-0.6484 0.0577,-0.3473 0.1581,-0.6195 0.2241,-0.6088 0.066,0.0114 0.0732,0.3018 0.0153,0.6484 -0.0575,0.3473 -0.1579,0.6201 -0.2242,0.6088 z m -1.2088,-0.266 c -0.0659,-0.0114 -0.0728,-0.3018 -0.0151,-0.6487 0.0577,-0.3469 0.1581,-0.6198 0.2241,-0.6084 0.0661,0.0107 0.073,0.3011 0.0153,0.6483 -0.0575,0.347 -0.1581,0.6195 -0.2243,0.6088 z m -1.095,-0.0324 c -0.067,0.0041 -0.1376,-0.2773 -0.1581,-0.6287 -0.0203,-0.3514 0.0176,-0.6391 0.0844,-0.6432 0.0669,-0.0038 0.1376,0.278 0.1578,0.6291 0.0205,0.351 -0.0172,0.6394 -0.0841,0.6428 z m -0.8588,-2.415 c -0.0657,-0.0145 -0.0572,-0.3049 0.018,-0.6487 0.0759,-0.3435 0.19,-0.6105 0.2552,-0.5964 0.0656,0.0145 0.0575,0.3049 -0.0179,0.6487 -0.0757,0.3435 -0.1899,0.6105 -0.2553,0.5964 z M 31.3526,25.763 c -0.0623,-0.0244 -0.0091,-0.31 0.1189,-0.638 0.1283,-0.3276 0.2826,-0.5736 0.3448,-0.5491 0.0627,0.0244 0.0093,0.31 -0.1188,0.6377 -0.1278,0.3276 -0.2825,0.5739 -0.3449,0.5494 z m 8.0019,0.881 c -0.0666,0.0079 -0.1555,-0.2687 -0.1988,-0.6177 -0.0432,-0.3494 -0.0243,-0.6391 0.0421,-0.6474 0.0666,-0.0079 0.1557,0.2684 0.1988,0.6174 0.0434,0.3493 0.0244,0.6391 -0.0421,0.6477 z m -1.1484,0.3224 c -0.067,-0.0024 -0.1116,-0.2894 -0.0995,-0.6411 0.0118,-0.3518 0.0759,-0.6353 0.1428,-0.6325 0.067,0.0021 0.1116,0.2894 0.0997,0.6408 -0.0119,0.3517 -0.076,0.6349 -0.143,0.6328 z m -1.2177,-0.0971 c -0.0661,-0.0111 -0.0732,-0.3015 -0.0153,-0.6484 0.0576,-0.3469 0.1579,-0.6198 0.2243,-0.6087 0.0659,0.0107 0.0727,0.3011 0.0151,0.6483 -0.0577,0.3473 -0.1583,0.6194 -0.2241,0.6088 z m -1.21,-0.1654 c -0.066,-0.011 -0.0729,-0.3014 -0.0152,-0.6487 0.0577,-0.3469 0.1581,-0.6194 0.2241,-0.6084 0.0661,0.011 0.073,0.3014 0.0153,0.6487 -0.0577,0.3469 -0.1581,0.6194 -0.2242,0.6084 z m -1.2086,-0.2663 c -0.0661,-0.011 -0.073,-0.3015 -0.0153,-0.6484 0.0577,-0.3469 0.1581,-0.6197 0.2243,-0.6087 0.0659,0.0107 0.0728,0.3011 0.0151,0.6483 -0.0577,0.3473 -0.1581,0.6198 -0.2241,0.6088 z M 33.3332,26.398 c -0.0663,-0.0107 -0.073,-0.3011 -0.0152,-0.6484 0.0576,-0.3469 0.158,-0.6194 0.2241,-0.6087 0.0662,0.0113 0.0731,0.3018 0.0152,0.6487 -0.0575,0.3469 -0.158,0.6198 -0.2241,0.6084 z m -0.946,-2.2841 c -0.0655,-0.0145 -0.0572,-0.3046 0.018,-0.6484 0.0757,-0.3435 0.1899,-0.6104 0.2552,-0.5963 0.0654,0.0144 0.0575,0.3049 -0.0181,0.648 -0.0753,0.3442 -0.1899,0.6111 -0.2551,0.5967 z m -1.0613,-0.4213 c -0.0625,-0.0245 -0.0089,-0.3098 0.1189,-0.6374 0.1281,-0.3276 0.2826,-0.5738 0.345,-0.5493 0.0624,0.0243 0.0091,0.3099 -0.1189,0.6375 -0.1281,0.328 -0.2825,0.5736 -0.345,0.5492 z m -1.0606,-0.5833 c -0.058,-0.0337 0.0391,-0.3073 0.2169,-0.611 0.1778,-0.3035 0.369,-0.5226 0.4265,-0.4887 0.0581,0.034 -0.0393,0.308 -0.217,0.6115 -0.1778,0.3032 -0.3688,0.5223 -0.4264,0.4882 z m 10.2587,1.6605 c -0.0646,0.019 -0.1954,-0.2408 -0.2927,-0.5787 -0.0972,-0.3383 -0.1237,-0.6277 -0.0591,-0.646 0.0643,-0.0186 0.1952,0.2405 0.2924,0.5791 0.0973,0.338 0.1238,0.6274 0.0594,0.6456 z m -1.134,0.1344 c -0.0666,0.0083 -0.1555,-0.2684 -0.1988,-0.6174 -0.0432,-0.3493 -0.0244,-0.639 0.0421,-0.6473 0.0665,-0.0083 0.1555,0.2684 0.1987,0.6174 0.0434,0.3493 0.0243,0.639 -0.042,0.6473 z m -1.2104,-0.0086 c -0.0672,-0.0021 -0.1118,-0.2891 -0.0999,-0.6408 0.0119,-0.3514 0.0759,-0.6346 0.1429,-0.6325 0.067,0.0024 0.1117,0.289 0.0998,0.6408 -0.0121,0.3517 -0.076,0.6352 -0.1428,0.6325 z m -1.218,-0.0968 c -0.0662,-0.0107 -0.0729,-0.3015 -0.0152,-0.6487 0.0577,-0.3469 0.1581,-0.6191 0.2241,-0.6085 0.066,0.0114 0.0729,0.3018 0.0153,0.6488 -0.0578,0.3469 -0.1581,0.6197 -0.2242,0.6084 z m -1.2099,-0.1654 c -0.0664,-0.0107 -0.0729,-0.3011 -0.0154,-0.648 0.0579,-0.3476 0.1583,-0.6198 0.2243,-0.6091 0.0662,0.011 0.073,0.3014 0.0151,0.6484 -0.0575,0.3472 -0.1577,0.6201 -0.224,0.6087 z m -1.2088,-0.2663 c -0.0659,-0.011 -0.0728,-0.3014 -0.0151,-0.6484 0.0577,-0.3469 0.1581,-0.6194 0.2241,-0.6087 0.0661,0.0113 0.073,0.3018 0.0153,0.6487 -0.0577,0.3469 -0.1581,0.6194 -0.2243,0.6084 z m -1.2364,-0.0393 c -0.0662,-0.011 -0.073,-0.3014 -0.0153,-0.6483 0.0577,-0.3473 0.1581,-0.6198 0.2242,-0.6088 0.0662,0.011 0.0731,0.3015 0.0152,0.6484 -0.0575,0.3472 -0.1582,0.6194 -0.2241,0.6087 z M 32.4614,22.0446 C 32.396,22.0305 32.404,21.74 32.4795,21.3962 c 0.0755,-0.3436 0.1898,-0.6105 0.2553,-0.5965 0.0653,0.0145 0.0572,0.3049 -0.0183,0.6486 -0.0752,0.3438 -0.1896,0.6108 -0.2551,0.5963 z m -1.0613,-0.4212 c -0.0625,-0.0243 -0.0091,-0.31 0.1189,-0.6377 0.1283,-0.3276 0.2825,-0.5735 0.345,-0.5493 0.0624,0.0245 0.009,0.3099 -0.1188,0.6379 -0.1282,0.3276 -0.2827,0.5736 -0.3451,0.5491 z M 30.3396,21.04 c -0.0582,-0.0336 0.0391,-0.3071 0.2168,-0.611 0.1778,-0.3035 0.369,-0.5223 0.4267,-0.4883 0.0577,0.0339 -0.0394,0.3074 -0.2172,0.611 -0.1776,0.304 -0.3688,0.5226 -0.4263,0.4883 z m 10.2585,1.6604 c -0.0645,0.0189 -0.1952,-0.2407 -0.2925,-0.5788 -0.0972,-0.3381 -0.1237,-0.6272 -0.0593,-0.6456 0.0644,-0.0188 0.1955,0.2406 0.2925,0.5788 0.0971,0.3381 0.1238,0.6273 0.0592,0.6456 z m -1.134,0.1343 c -0.0665,0.0087 -0.1554,-0.2678 -0.1986,-0.6173 -0.0433,-0.349 -0.0245,-0.6391 0.0422,-0.647 0.0661,-0.0085 0.1554,0.268 0.1986,0.6174 0.0432,0.3491 0.0243,0.639 -0.0422,0.6469 z m -1.2103,-0.0079 c -0.0672,-0.0024 -0.1118,-0.2894 -0.0999,-0.641 0.0121,-0.3515 0.076,-0.6351 0.1428,-0.6328 0.0672,0.0022 0.1118,0.2894 0.0997,0.6407 -0.0118,0.352 -0.0757,0.6352 -0.1426,0.6331 z m -1.218,-0.0972 c -0.0661,-0.011 -0.073,-0.3014 -0.0153,-0.6481 0.0579,-0.3475 0.1581,-0.62 0.2242,-0.6088 0.066,0.0109 0.0729,0.3013 0.0154,0.6482 -0.0577,0.3471 -0.1583,0.6198 -0.2243,0.6088 z m -1.2099,-0.1652 c -0.0662,-0.0111 -0.0729,-0.3016 -0.0153,-0.6485 0.0578,-0.3471 0.1583,-0.6198 0.2242,-0.6086 0.066,0.0109 0.0731,0.3013 0.0154,0.6484 -0.0577,0.3471 -0.158,0.6196 -0.2243,0.6087 z m -1.2087,-0.2663 c -0.0661,-0.0108 -0.0729,-0.3012 -0.0152,-0.6483 0.0577,-0.3474 0.1581,-0.6196 0.2241,-0.6088 0.0662,0.0109 0.0732,0.3013 0.0154,0.6482 -0.0578,0.3471 -0.1582,0.6198 -0.2243,0.6089 z m -1.2366,-0.0396 c -0.066,-0.0108 -0.0729,-0.3013 -0.0152,-0.6482 0.0577,-0.3474 0.1581,-0.6197 0.2243,-0.6089 0.0661,0.0109 0.073,0.3013 0.0153,0.6484 -0.0579,0.3471 -0.1581,0.6199 -0.2244,0.6087 z m 2.9841,-3.809 c -1.7239,-0.8944 -3.8881,-0.6403 -5.3421,0.7808 -1.7231,1.684 -1.8309,4.402 -0.3101,6.241 0.1385,0.936 0.5641,1.841 1.2783,2.5717 1.7902,1.8321 4.7155,1.8776 6.5321,0.1023 0.323,-0.3155 0.5889,-0.668 0.7984,-1.0435 0.3805,-0.2008 0.7388,-0.4589 1.0618,-0.7744 1.8167,-1.776 1.8381,-4.7014 0.0478,-6.5328 -1.1003,-1.126 -2.6293,-1.577 -4.0662,-1.3451 z"
   id="path2" />
  <path
   class="fil2"
   d="m 28.8106,19.2819 c 0.1225,0.0896 0.2725,-0.2345 0.1878,-0.3198 -0.405,-0.2732 -0.9848,-0.3387 -1.3298,-0.3021 -0.3099,0.0597 -0.3314,0.4173 0.0697,0.387 0.4202,-0.0284 0.7692,0.0679 1.0723,0.2349 z"
   id="path3" />
  <path
   class="fil2"
   d="m 29.167,18.8107 c 0.0829,0.104 0.4097,-0.1053 0.3268,-0.2093 -0.3255,-0.4725 -0.838,-0.9662 -1.207,-1.3868 -0.1328,-0.1668 -0.3826,0.0324 -0.2853,0.176 0.3069,0.4704 0.84,0.9476 1.1655,1.4201 z"
   id="path4" />
  <path
   class="fil2"
   d="m 29.5904,18.0817 c 0.1473,0.0358 0.2827,0.0133 0.4095,0.0654 -0.0246,-0.2867 -0.0174,-0.6838 0.0832,-1.0702 0.0563,-0.1643 -0.2221,-0.2148 -0.3306,-0.0942 -0.1977,0.2429 -0.1614,0.7583 -0.1621,1.099 z"
   id="path5" />
  <path
   class="fil0"
   d="m 26.9603,19.3944 c 0.641,-0.3064 0.8916,-0.0127 1.0657,0.2912 0.0636,0.4428 -0.0098,0.7565 -0.2616,0.9744 -0.0477,-0.0813 -0.0975,-0.1435 -0.1432,-0.2435 -0.0711,0.2948 -0.2754,0.5939 -0.5254,0.7928 -0.0475,-0.0811 -0.0744,-0.1788 -0.1198,-0.2787 -0.2006,0.432 -0.5397,0.5833 -0.9456,0.8213 -0.0268,-0.0978 -0.0182,-0.1726 -0.0552,-0.3471 -0.3018,0.1551 -0.6243,0.327 -0.953,0.3847 -0.0162,-0.1914 -0.0182,-0.173 -0.0344,-0.364 -0.4081,0.2568 -0.9526,0.2145 -1.2793,0.4236 -0.0385,-0.497 0.1081,-1.1245 0.4396,-1.5417 -0.1122,-0.0128 -0.3036,0.0036 -0.42,0.0284 0.138,-0.3824 0.4525,-0.6497 0.7021,-0.8488 -0.0913,-0.0292 -0.1617,-0.0751 -0.2117,-0.1377 0.2129,-0.3736 0.6269,-0.5164 0.9596,-0.6112 -0.0663,-0.0835 -0.139,-0.1104 -0.222,-0.2146 0.3268,-0.2091 0.6366,-0.2689 1.0461,-0.2037 0.0105,-0.0933 -0.037,-0.1747 -0.1015,-0.2763 0.4536,-0.1575 1.1226,-0.0436 1.3254,0.5097 0.1446,0.3951 -0.1924,0.5274 -0.467,0.6103 -0.2612,-0.3707 -0.7572,-0.6732 -1.2461,-0.539 0.4217,0.1233 0.7789,0.3154 1.0256,0.6466 l -0.5307,0.3374 c -0.2388,-0.2351 -0.7371,-0.5189 -1.0868,-0.2742 0.318,0.0357 0.6422,0.1861 0.8641,0.4007 l -0.3978,0.3338 c -0.2363,-0.254 -0.6976,-0.3629 -0.9994,-0.2079 0.395,0.0259 0.6211,0.2031 0.7662,0.4279 -0.2937,0.2508 -0.7205,0.6761 -0.9601,0.9521 0.3267,-0.2095 0.7536,-0.6345 1.0617,-0.846 0.201,0.2308 0.2005,0.5721 0.2665,0.8261 0.1504,-0.3241 0.1178,-0.7069 -0.0396,-0.9897 l 0.4747,-0.344 c 0.2029,0.3829 0.3642,0.7987 0.3113,1.2666 0.2003,-0.4322 0.118,-0.8773 -0.0763,-1.335 l 0.4912,-0.3232 c 0.2863,0.3165 0.4603,0.6205 0.4303,1.0523 0.1421,-0.4191 0.0264,-0.7353 -0.1536,-1.1536 z"
   id="path6" />
  <path
   class="fil0"
   d="m 30.2259,16.3163 c -0.1189,0.214 -0.3624,0.3569 -0.5077,0.3026 -0.6482,-0.3006 -0.7549,-0.8623 -0.4399,-1.4707 0.0684,0.0646 0.1679,0.1897 0.2178,0.252 0.0611,-0.3719 0.2967,-0.781 0.5882,-1.013 0.0851,0.0852 0.1285,0.2038 0.195,0.2873 0.196,-0.3947 0.3004,-0.648 0.7415,-0.8634 0.0205,0.1539 0.0495,0.2328 0.1327,0.337 0.1831,-0.2823 0.4415,-0.5561 0.7679,-0.5951 0.004,0.1331 0.0117,0.399 0.0155,0.5322 0.3834,-0.3734 1.1133,-0.4613 1.7363,-0.277 -0.2561,0.255 -0.3759,0.81 -0.7777,1.1812 0.1538,-0.0205 0.3223,-0.0016 0.4654,0.0715 -0.2211,0.4485 -0.4921,0.8347 -0.8564,1.0399 0.1641,0.0563 0.2203,0.0625 0.3865,0.1002 -0.1962,0.3947 -0.5603,0.5998 -0.9408,0.6136 0.1016,0.1063 0.222,0.2144 0.2881,0.2978 -0.2433,0.143 -0.5531,0.2028 -0.9084,0.1623 0.0475,0.0813 0.093,0.1812 0.1593,0.2642 -0.4348,0.1594 -1.1825,-0.0958 -1.2544,-0.4637 -0.0496,-0.2331 0.0047,-0.3784 0.1778,-0.5671 0.3154,0.225 0.8847,0.3842 1.3655,0.1542 -0.4448,-0.088 -0.9936,-0.0933 -1.1884,-0.3806 L 31.0376,15.84 c 0.3278,0.2831 0.8119,0.3571 1.1783,0.1333 -0.3805,0.0138 -0.823,-0.0932 -1.0263,-0.3056 l 0.4874,-0.4563 c 0.3298,0.2646 0.6874,0.286 1.0559,0.0438 -0.466,0.0987 -0.7753,-0.0119 -0.8852,-0.214 0.2958,-0.2696 0.7641,-0.5576 1.0223,-0.8314 -0.3807,0.1843 -0.8344,0.5117 -1.1614,0.721 -0.1138,-0.1643 -0.1322,-0.3371 -0.0795,-0.6341 -0.2002,0.2615 -0.2298,0.5234 -0.0848,0.7481 l -0.5434,0.4502 c -0.1596,-0.2645 -0.1962,-0.6095 0.0165,-0.9834 -0.3187,0.3048 -0.4966,0.8719 -0.2269,1.1676 l -0.3896,0.4296 c -0.22,-0.2332 -0.4453,-0.7513 -0.3283,-1.1168 -0.3521,0.4335 -0.081,1.0517 0.1533,1.3243 z"
   id="path7" />
  <path
   class="fil0"
   d="m 27.502,16.7848 c 0.2467,0.3309 0.3209,0.5097 0.1024,0.7693 -0.4564,0.5164 -1.2377,0.3903 -1.9996,-0.0749 0.0293,-0.0912 0.1354,-0.1932 0.2165,-0.2405 -0.3903,-0.2336 -0.6704,-0.4358 -0.9691,-0.8108 0.1604,-0.0763 0.2372,-0.0868 0.3768,-0.1466 -0.3926,-0.215 -0.5459,-0.5354 -0.7092,-0.9328 0.102,-0.0642 0.2745,-0.0825 0.4098,-0.105 -0.2489,-0.3124 -0.4083,-0.5768 -0.4741,-1.001 0.1518,-0.0017 0.2267,0.0067 0.364,-0.0345 -0.1574,-0.2832 -0.2126,-0.801 -0.1618,-1.2497 0.5361,0.1175 0.8911,0.3282 1.1688,0.7197 0.0357,-0.1478 0.0901,-0.2932 0.1256,-0.4405 0.3283,0.1129 0.5314,0.3254 0.6496,0.6229 0.0666,-0.0873 0.1374,-0.2118 0.2271,-0.3343 0.2968,0.223 0.5167,0.4565 0.6489,0.7934 0.0836,-0.0665 0.1876,-0.1495 0.275,-0.2532 0.3403,0.3415 0.4227,0.6161 0.5365,0.951 0.0853,-0.0851 0.1893,-0.168 0.2748,-0.2531 0.2425,0.3685 0.2916,0.7721 0.2246,1.0295 0.1101,0.0315 0.1681,0.0191 0.2641,0.011 -0.0284,0.5841 -0.3494,0.9077 -0.6841,1.0211 -0.3371,0.1326 -0.4842,-0.0736 -0.6563,-0.2255 0.3458,-0.3778 0.4462,-0.7641 0.3578,-1.1529 -0.0093,0.4155 -0.2282,0.6747 -0.5383,0.905 l -0.5515,-0.6496 c 0.2566,-0.4256 0.3486,-0.7374 0.2892,-1.2174 -0.1066,0.4423 -0.255,0.7477 -0.4884,0.9675 l -0.4995,-0.606 c 0.2272,-0.3342 0.2382,-0.5979 0.0892,-0.956 -0.0029,0.3598 -0.0592,0.5239 -0.3092,0.7228 -0.1493,-0.1874 -0.6804,-0.683 -1.0228,-1.006 0.2961,0.5638 0.5781,0.9178 0.8311,1.1927 -0.1499,0.1535 -0.4887,0.1344 -0.8773,0.0524 0.2617,0.2 0.704,0.3069 1.0764,0.1976 l 0.4977,0.6245 c -0.329,0.2279 -0.7864,0.2521 -1.3037,0.1366 0.4651,0.2423 1.0451,0.3077 1.5006,0.1318 l 0.4955,0.6436 c -0.2771,0.2716 -1.0254,0.3572 -1.7382,0.1252 0.6002,0.3901 1.5832,0.4065 1.9811,0.0727 z"
   id="path8" />
  <path
   class="fil2"
   d="m 26.8047,25.5198 c 0.415,-0.2401 1.1195,-0.0926 1.4788,0.1678 -1.7261,-2.8498 0.2765,-5.553 1.9913,-7.248 1.8545,-1.8334 3.4752,-0.8018 3.2255,-0.552 -0.147,0.1469 -0.8828,-0.5285 -1.4332,-0.3419 -0.4117,0.1393 -1.2311,0.6287 -1.6984,1.1048 -0.5641,0.5744 -1.1079,1.2504 -1.4581,1.7437 -1.0338,1.4551 -1.6373,3.7838 -0.3337,5.1325 0.0146,-0.2753 0.0959,-0.7524 0.5111,-0.9929 0.1946,-0.1323 0.4554,0.1572 0.2349,0.2653 -0.9787,0.5116 0.6084,2.198 0.3988,3.2295 0.6776,-0.5502 0.9307,-0.4603 1.0632,-0.2653 -1.0374,0.2894 -0.8935,1.4317 -1.2932,2.0712 -0.7288,1.1765 -2.4196,1.3411 -2.4694,1.9919 0.4813,-0.4678 1.5789,-0.4847 1.9258,0.101 0.1075,0.1956 0.0661,0.4217 -0.0891,0.2777 -0.8771,-0.7397 -1.897,-0.0018 -1.9125,0.8973 -0.0305,1.1494 1.1677,4.3981 4.1,3.4114 l 0.0135,0.3489 -0.8648,0.2335 0.8736,-0.0088 -0.0367,0.3503 -0.8963,0.0596 0.8551,0.1672 -0.0614,0.3514 -0.7524,-0.096 0.7113,0.3228 -0.1094,0.4033 c -3.8358,-2.5436 -4.6928,-4.7844 -4.2754,-6.565 0.3153,-1.3463 1.8907,-1.47 2.5577,-2.5573 0.7558,-1.2316 0.4511,-3.3758 -2.2566,-4.0039 z"
   id="path9" />
  <path
   class="fil0"
   d="m 19.5035,29.1644 c -0.0644,0.0585 -0.1267,0.1199 -0.1867,0.184 l 0.0357,-0.1868 c 0.0484,0.0038 0.0992,0.0049 0.151,0.0028 z m -2.0196,1.9186 c 0.0017,-0.0393 5e-4,-0.0803 -0.0025,-0.122 l 0.1297,-0.0337 c -0.0437,0.0506 -0.0863,0.1026 -0.1272,0.1557 z m 2.8289,-2.4612 c 0.0331,-0.2105 0.0911,-0.3941 0.0605,-0.6012 -0.113,0.0393 -0.1023,0.0338 -0.2204,0.0627 -10e-4,-0.3145 -0.0944,-0.5736 -0.1719,-0.8261 -0.2642,0.1092 -0.4871,0.2515 -0.6668,0.5443 -0.0349,-0.0754 -0.0599,-0.1295 -0.0684,-0.2046 -0.2018,0.1588 -0.2883,0.3693 -0.4339,0.5939 -0.0356,-0.0489 -0.0773,-0.0823 -0.1297,-0.1102 -0.177,0.2129 -0.2101,0.4248 -0.201,0.6435 -0.0632,-0.0227 -0.094,-0.061 -0.1838,-0.0854 -0.072,0.112 -0.1056,0.2229 -0.1109,0.3324 -0.05,-0.0306 -0.1035,-0.0582 -0.1625,-0.082 -0.0137,0.0855 -0.0225,0.1588 -0.0399,0.2364 -0.1523,-0.1592 -0.4083,-0.2267 -0.6239,-0.2501 -0.0123,0.0651 0,0.1398 0.0177,0.2029 -0.1962,-0.0714 -0.3645,-0.1037 -0.5877,-0.0741 0.0122,0.0751 0.0112,0.0954 0.0198,0.1616 -0.1645,-0.0238 -0.338,-0.0441 -0.5526,0.052 0.0763,0.2195 0.1922,0.4124 0.4181,0.4816 -0.0624,0.0448 -0.1198,0.0782 -0.1907,0.1264 0.1109,0.1354 0.2907,0.2633 0.4515,0.2788 -0.0324,0.0427 -0.1044,0.1116 -0.1546,0.1616 0.1205,0.0919 0.2446,0.1636 0.3845,0.1881 -0.1102,6e-4 -0.2311,0.0189 -0.3257,0.1023 0.0101,0.0279 0.0294,0.0527 0.0584,0.0744 -0.1127,0.0403 -0.256,0.0961 -0.3509,0.2143 0.0441,0.0058 0.1137,0.0227 0.1516,0.0413 -0.1673,0.1072 -0.2953,0.3115 -0.3416,0.4916 0.1407,-0.0344 0.3281,0.0462 0.5035,0.0048 -0.0176,0.07 -0.0146,0.0631 -0.0319,0.133 0.1227,0.0193 0.2569,-0.0024 0.3817,-0.0207 0.06,-0.1068 0.1254,-0.2094 0.1957,-0.3083 0.0031,-0.0771 -0.0048,-0.1543 -0.017,-0.2305 l -0.2095,0.0645 c 0.0215,0.1192 -0.0131,0.258 -0.1056,0.3545 0.0076,-0.0979 0.0489,-0.2184 0.0059,-0.3239 -0.1346,0.0372 -0.3368,0.1358 -0.4777,0.1705 0.1182,-0.0685 0.3206,-0.1674 0.4546,-0.2208 -0.0241,-0.0968 -0.0825,-0.1867 -0.2193,-0.2436 0.1254,-0.0182 0.2753,0.0762 0.3282,0.1944 l 0.1808,-0.07 c -0.0525,-0.1027 -0.1486,-0.1946 -0.2566,-0.2463 0.1531,-0.0441 0.295,0.1164 0.3509,0.2288 l 0.2282,-0.0555 c -0.0054,-0.0169 -0.0116,-0.0331 -0.0184,-0.0489 0.0322,0.0024 0.0651,0.0045 0.0992,0.0062 l 8e-4,0.0024 -0.006,0.0137 0.0196,-0.0209 c 0.071,-0.0724 0.1447,-0.1409 0.2214,-0.2057 l -0.0029,-0.0097 c 0.1436,-0.1281 0.2978,-0.2442 0.4609,-0.3455 0.0064,-0.0124 0.0126,-0.0255 0.0178,-0.0386 L 18.0816,30.045 c -0.1609,0.1581 -0.3867,0.2718 -0.6052,0.3131 -0.0068,-0.0024 -0.0139,-0.0045 -0.0208,-0.0058 0.1922,-0.1075 0.4031,-0.2426 0.4725,-0.3759 l -0.3879,-0.134 c -0.1197,0.1478 -0.2682,0.2074 -0.4591,0.194 0.1495,-0.08 0.2457,-0.1185 0.3516,-0.2508 l -0.3106,-0.1454 c -0.0784,0.1016 -0.207,0.1833 -0.3681,0.1677 0.1025,-0.0713 0.1487,-0.1298 0.2172,-0.207 -0.1448,-0.072 -0.2797,-0.1678 -0.428,-0.2481 0.1584,0.0562 0.3393,0.0937 0.4978,0.1503 0.0661,-0.1069 0.0474,-0.1489 0.0162,-0.266 0.0935,0.0724 0.1336,0.186 0.1173,0.3125 l 0.3107,0.145 c 0.0774,-0.1509 0.0674,-0.2666 0.026,-0.4299 0.1173,0.103 0.1837,0.2759 0.1337,0.4657 l 0.3307,0.0972 c 0.0658,-0.1764 0.0223,-0.3683 -0.0165,-0.5726 0.1848,0.1857 0.1934,0.3917 0.1712,0.6208 l 0.3469,0.1106 c 0.0059,-0.0269 0.0107,-0.0531 0.0145,-0.0799 0.0407,0.0275 0.0844,0.0499 0.1308,0.0647 -0.0018,0.0235 -0.0047,0.0469 -0.0081,0.07 0.0236,0.0093 0.0472,0.0168 0.0704,0.0231 0.0536,-0.0272 0.1078,-0.0535 0.1628,-0.0775 0.0822,-0.1458 0.1748,-0.2839 0.2763,-0.4138 -0.0153,-0.031 -0.0341,-0.06 -0.0543,-0.0841 -0.0403,0.0341 -0.0837,0.0614 -0.1273,0.0882 -0.0062,-0.0027 -0.0125,-0.0055 -0.0187,-0.0089 -0.0393,-0.1668 -0.1396,-0.3004 -0.2806,-0.4176 -0.0226,0.0165 -0.051,0.0558 -0.0693,0.0934 -0.0475,-0.0875 -0.0763,-0.1854 -0.0784,-0.2901 0.1632,0.2391 0.3556,0.4 0.5984,0.4713 l 0.0626,-0.2915 c -0.1893,-0.0961 -0.4203,-0.3696 -0.354,-0.6232 0.0958,0.1788 0.2396,0.3483 0.4236,0.4341 l 0.1236,-0.3852 c -0.1996,-0.0916 -0.278,-0.3179 -0.2678,-0.4668 0.0923,0.1147 0.2112,0.2305 0.3645,0.2777 0.092,-0.2264 0.2108,-0.4516 0.3447,-0.6449 -0.0655,0.227 -0.143,0.4861 -0.2035,0.7238 0.1738,0.0641 0.3785,-0.0041 0.549,-0.0045 -0.1647,0.1547 -0.4058,0.2009 -0.6022,0.1737 l -0.1171,0.3427 c 0.0964,0.0159 0.2001,0.0238 0.3057,0.0204 0.1835,-0.1399 0.3814,-0.2608 0.59,-0.3597 z"
   id="path10" />
  <path
   class="fil1"
   d="m 17.5712,33.0312 c 0.0479,-0.0025 0.0753,-0.2078 0.0613,-0.4586 -0.0139,-0.2504 -0.0641,-0.4513 -0.1116,-0.4492 -0.0479,0.0027 -0.0753,0.2084 -0.0612,0.4589 0.0138,0.2504 0.0639,0.4517 0.1115,0.4489 z m 0.8663,-0.3935 c 0.0454,-0.0155 0.0174,-0.2204 -0.0622,-0.4585 -0.0798,-0.2381 -0.1812,-0.4189 -0.2267,-0.4034 -0.0451,0.0151 -0.0172,0.2208 0.0625,0.4585 0.0796,0.2381 0.1811,0.4186 0.2264,0.4034 z m 0.9598,-0.6239 c 0.041,-0.0251 -0.0324,-0.2187 -0.1635,-0.433 -0.1311,-0.2139 -0.2706,-0.3673 -0.3113,-0.3425 -0.0406,0.0248 0.0326,0.2188 0.1635,0.4328 0.1311,0.2142 0.2706,0.3675 0.3113,0.3427 z M 20.1659,31.34 c 0.0349,-0.0334 -0.0779,-0.2071 -0.251,-0.389 -0.1736,-0.1815 -0.3421,-0.3014 -0.3767,-0.2687 -0.0347,0.0331 0.078,0.2067 0.2513,0.3883 0.1733,0.1819 0.3419,0.3021 0.3764,0.2694 z m 0.6935,-0.4861 c 0.0344,-0.0328 -0.0779,-0.2071 -0.2514,-0.3886 -0.1734,-0.1816 -0.3421,-0.3018 -0.3767,-0.2687 -0.0344,0.0327 0.078,0.207 0.2515,0.3882 0.1733,0.1816 0.3419,0.3021 0.3766,0.2691 z m 0.7803,-0.9344 c 0.0179,-0.0444 -0.1564,-0.1563 -0.3893,-0.2504 -0.2327,-0.0937 -0.436,-0.134 -0.4539,-0.0896 -0.0178,0.0445 0.1564,0.1564 0.3891,0.2505 0.2327,0.0937 0.4363,0.134 0.4541,0.0895 z m 0.5209,-0.9377 c -9e-4,-0.0479 -0.205,-0.0834 -0.456,-0.0789 -0.251,0.0041 -0.4539,0.0462 -0.453,0.0944 9e-4,0.0476 0.205,0.083 0.4559,0.0785 0.2509,-0.0041 0.4539,-0.0465 0.4531,-0.094 z m 2.8797,5.167 c 0.0409,-0.0247 -0.0312,-0.2188 -0.161,-0.4336 -0.1297,-0.2152 -0.2682,-0.369 -0.309,-0.3447 -0.041,0.0247 0.031,0.2191 0.161,0.4339 0.1297,0.2152 0.2682,0.369 0.309,0.3444 z m -2.9839,2.5424 c 0.0268,-0.0391 -0.1208,-0.1848 -0.3292,-0.3249 -0.2084,-0.1397 -0.399,-0.2212 -0.4255,-0.1813 -0.0268,0.0395 0.1206,0.1852 0.329,0.3252 0.2083,0.1397 0.3991,0.2209 0.4257,0.181 z m 0.8288,-0.121 c 0.0268,-0.0398 -0.1207,-0.1855 -0.3291,-0.3256 -0.2084,-0.14 -0.399,-0.2212 -0.4257,-0.1813 -0.0267,0.0395 0.1208,0.1852 0.3292,0.3252 0.2084,0.1397 0.3991,0.2212 0.4256,0.1817 z m 0.5885,-0.4896 c 0.0351,-0.0321 -0.0741,-0.2085 -0.2441,-0.3934 -0.1697,-0.1848 -0.3361,-0.3083 -0.3712,-0.2762 -0.0352,0.0328 0.0739,0.2088 0.2439,0.3937 0.1698,0.1848 0.3362,0.308 0.3714,0.2759 z m 0.618,-0.6304 c 0.0352,-0.0322 -0.074,-0.2085 -0.2439,-0.3937 -0.1698,-0.1846 -0.3362,-0.308 -0.3714,-0.2759 -0.0353,0.0324 0.0741,0.2085 0.2439,0.3933 0.1699,0.1849 0.3361,0.3084 0.3714,0.2763 z m 0.6417,-0.4467 c 0.0415,-0.024 -0.0262,-0.2194 -0.1509,-0.4371 -0.1251,-0.218 -0.26,-0.3753 -0.3013,-0.3513 -0.0415,0.024 0.0262,0.2201 0.1511,0.4374 0.1247,0.2177 0.2596,0.375 0.3011,0.351 z m -0.4295,-1.7776 c 0.0336,-0.0342 -0.0846,-0.2039 -0.2635,-0.3801 -0.1793,-0.1757 -0.3516,-0.2908 -0.3852,-0.2566 -0.0332,0.0341 0.0848,0.2043 0.2638,0.3802 0.1791,0.1757 0.3515,0.2907 0.3849,0.2565 z m 0.4696,-0.6653 c 0.0279,-0.0393 -0.1152,-0.1888 -0.3197,-0.3346 -0.2045,-0.146 -0.3924,-0.2325 -0.4203,-0.1936 -0.0277,0.039 0.1156,0.1888 0.3199,0.3345 0.2041,0.1458 0.3925,0.2322 0.4201,0.1937 z m -4.4359,3.6473 c 0.0431,-0.0211 -0.0117,-0.2208 -0.122,-0.4466 -0.1106,-0.2247 -0.2347,-0.3905 -0.2778,-0.3701 -0.0427,0.0212 0.0117,0.2209 0.1223,0.4467 0.1102,0.2257 0.2348,0.3912 0.2775,0.37 z m 0.8118,-0.255 c 0.0391,-0.0279 -0.0461,-0.2163 -0.1905,-0.422 -0.1441,-0.2053 -0.293,-0.3496 -0.3322,-0.322 -0.039,0.0275 0.0463,0.2162 0.1905,0.4215 0.1443,0.2053 0.2931,0.3496 0.3322,0.3225 z m 0.6896,-0.5334 c 0.0353,-0.0321 -0.0739,-0.2085 -0.2438,-0.3934 -0.17,-0.1848 -0.3362,-0.3083 -0.3712,-0.2759 -0.0355,0.0325 0.0739,0.2085 0.2436,0.393 0.1698,0.1852 0.3362,0.3087 0.3714,0.2763 z m 0.6582,-0.5708 c 0.0353,-0.0321 -0.0741,-0.2082 -0.2438,-0.393 -0.17,-0.1845 -0.3364,-0.3087 -0.3714,-0.2763 -0.0351,0.0325 0.0739,0.2085 0.2438,0.3934 0.1698,0.1848 0.3362,0.3087 0.3714,0.2759 z m 0.618,-0.6304 c 0.0353,-0.0325 -0.0739,-0.2085 -0.2439,-0.393 -0.1698,-0.1849 -0.3361,-0.3087 -0.3714,-0.2763 -0.0351,0.0325 0.0743,0.2089 0.2441,0.3934 0.1697,0.1848 0.3361,0.308 0.3712,0.2759 z m 0.7233,-0.5059 c 0.0352,-0.0325 -0.0741,-0.2085 -0.2439,-0.3934 -0.1698,-0.1845 -0.3361,-0.3087 -0.3714,-0.2762 -0.0353,0.0325 0.0741,0.2088 0.2439,0.3933 0.1699,0.1849 0.3361,0.3087 0.3714,0.2763 z M 23.5122,31.979 c 0.0337,-0.034 -0.0845,-0.2043 -0.2635,-0.3803 -0.1793,-0.1757 -0.3516,-0.2908 -0.385,-0.2566 -0.0334,0.0344 0.0846,0.2042 0.2636,0.3799 0.1791,0.1761 0.3515,0.2908 0.3849,0.257 z m 0.4698,-0.6656 c 0.0279,-0.0389 -0.1154,-0.1887 -0.3199,-0.3345 -0.2043,-0.1457 -0.3924,-0.2325 -0.4203,-0.1936 -0.0277,0.0389 0.1156,0.1888 0.3199,0.3345 0.2043,0.1461 0.3924,0.2322 0.4203,0.1936 z m 0.4062,-0.762 c 0.0212,-0.0431 -0.1437,-0.1685 -0.3681,-0.2804 -0.2246,-0.112 -0.4243,-0.1685 -0.4455,-0.1258 -0.0213,0.0431 0.1435,0.1685 0.3683,0.2808 0.2244,0.112 0.4239,0.1681 0.4453,0.1254 z m -5.48,4.9933 c 0.0457,-0.0141 0.0228,-0.2198 -0.0511,-0.46 -0.0739,-0.2396 -0.1709,-0.423 -0.2166,-0.4089 -0.0456,0.0141 -0.0227,0.2205 0.051,0.46 0.0741,0.2403 0.1711,0.4234 0.2167,0.4089 z m 0.7297,-0.362 c 0.0429,-0.0211 -0.0117,-0.2208 -0.122,-0.4462 -0.1104,-0.2258 -0.2349,-0.3909 -0.2776,-0.3704 -0.0431,0.0211 0.0115,0.2208 0.1219,0.4466 0.1104,0.2258 0.2348,0.3909 0.2777,0.37 z m 0.7198,-0.4773 c 0.0392,-0.0275 -0.0461,-0.2162 -0.1905,-0.4215 -0.1441,-0.2053 -0.293,-0.3496 -0.3321,-0.3221 -0.0391,0.0275 0.0462,0.2159 0.1904,0.4219 0.1443,0.205 0.2931,0.3496 0.3322,0.3217 z m 0.6896,-0.533 c 0.0353,-0.0321 -0.0739,-0.2081 -0.2438,-0.393 -0.17,-0.1849 -0.3362,-0.3087 -0.3713,-0.2762 -0.0353,0.0324 0.074,0.2085 0.2437,0.393 0.17,0.1852 0.3362,0.3086 0.3714,0.2762 z m 0.6582,-0.5705 c 0.0353,-0.0328 -0.0741,-0.2088 -0.2438,-0.3933 -0.17,-0.1849 -0.3362,-0.3083 -0.3714,-0.2759 -0.0353,0.0321 0.074,0.2085 0.244,0.393 0.1696,0.1849 0.3361,0.3084 0.3712,0.2762 z m 0.618,-0.6307 c 0.0352,-0.0325 -0.0739,-0.2084 -0.2439,-0.3934 -0.1698,-0.1846 -0.336,-0.3083 -0.3714,-0.2759 -0.0351,0.0323 0.0741,0.2084 0.244,0.3934 0.1698,0.1846 0.3362,0.3083 0.3713,0.2759 z m 0.7231,-0.506 c 0.0354,-0.0321 -0.0739,-0.2081 -0.2437,-0.3931 -0.1698,-0.1847 -0.3362,-0.3084 -0.3714,-0.2763 -0.0351,0.0323 0.0741,0.2084 0.244,0.3934 0.1698,0.185 0.3362,0.3083 0.3711,0.276 z m -0.3858,-1.6933 c 0.0336,-0.0338 -0.0846,-0.2043 -0.2637,-0.3804 -0.1792,-0.1753 -0.3514,-0.2907 -0.385,-0.2563 -0.0334,0.0338 0.0845,0.2043 0.2637,0.38 0.1793,0.176 0.3516,0.2911 0.385,0.2567 z m 0.4696,-0.6656 c 0.0277,-0.0389 -0.1154,-0.1884 -0.3197,-0.3342 -0.2045,-0.1461 -0.3926,-0.2325 -0.4202,-0.1936 -0.028,0.0386 0.1153,0.1884 0.3197,0.3345 0.2043,0.1454 0.3926,0.2322 0.4202,0.1933 z m 0.4061,-0.7621 c 0.0214,-0.0427 -0.1434,-0.1681 -0.3679,-0.2801 -0.225,-0.1123 -0.4241,-0.1684 -0.4456,-0.1253 -0.0214,0.0427 0.1435,0.1681 0.3683,0.28 0.2246,0.1123 0.4239,0.1682 0.4452,0.1254 z m -5.4797,4.9936 c 0.0458,-0.0141 0.0227,-0.2201 -0.0512,-0.46 -0.0739,-0.2395 -0.1709,-0.423 -0.2167,-0.4088 -0.0456,0.0141 -0.0227,0.2201 0.0512,0.46 0.074,0.2399 0.1709,0.423 0.2167,0.4088 z m 0.7296,-0.3623 c 0.0428,-0.0211 -0.0118,-0.2204 -0.1221,-0.4466 -0.1104,-0.225 -0.2348,-0.3905 -0.2777,-0.3697 -0.043,0.0212 0.0118,0.2209 0.1223,0.4463 0.1103,0.2258 0.2347,0.3912 0.2775,0.37 z m 0.7197,-0.4769 c 0.0393,-0.0275 -0.046,-0.2163 -0.1903,-0.4219 -0.1444,-0.205 -0.293,-0.3497 -0.3323,-0.3218 -0.0391,0.0272 0.0463,0.2163 0.1907,0.4212 0.1442,0.2057 0.2928,0.3496 0.3319,0.3225 z m 0.6897,-0.5331 c 0.0354,-0.0321 -0.074,-0.2086 -0.2439,-0.3932 -0.1698,-0.1847 -0.336,-0.308 -0.3714,-0.2759 -0.0349,0.0323 0.0743,0.2084 0.2439,0.393 0.1699,0.185 0.3361,0.3082 0.3714,0.2761 z m 0.658,-0.5707 c 0.0354,-0.0323 -0.0739,-0.2084 -0.2437,-0.393 -0.1698,-0.185 -0.3361,-0.3091 -0.3714,-0.2763 -0.0351,0.0324 0.0741,0.2084 0.244,0.3931 0.1696,0.185 0.3362,0.3086 0.3711,0.2762 z m 0.6181,-0.6304 c 0.0353,-0.0324 -0.0737,-0.2084 -0.2438,-0.3931 -0.1698,-0.185 -0.336,-0.3086 -0.3713,-0.2763 -0.0352,0.0321 0.0741,0.2085 0.2439,0.3931 0.1698,0.1847 0.336,0.3084 0.3712,0.2763 z m 0.7231,-0.5061 c 0.0355,-0.0323 -0.0739,-0.2084 -0.2436,-0.3931 -0.1698,-0.185 -0.3364,-0.3086 -0.3713,-0.2763 -0.0353,0.0324 0.0741,0.2088 0.2437,0.3935 0.17,0.1846 0.3362,0.3083 0.3712,0.2759 z m -3.2682,-1.1114 c 0.681,-1.2064 2.0728,-1.8989 3.4956,-1.6171 1.686,0.3335 2.8109,1.9148 2.6197,3.6067 0.2824,0.6132 0.3811,1.3194 0.2397,2.0348 -0.3546,1.7925 -2.0839,2.9609 -3.8617,2.6092 -0.3161,-0.0628 -0.6124,-0.1694 -0.8839,-0.3122 -0.3056,0.0285 -0.6203,0.0141 -0.9365,-0.048 -1.7777,-0.3524 -2.9315,-2.0909 -2.5768,-3.8835 0.2181,-1.1018 0.9553,-1.9678 1.9039,-2.3899 z"
   id="path11" />
  <path
   class="fil2"
   d="m 26.5774,31.3183 c -0.0808,-2.3758 -2.3313,-3.2091 -4.0167,-3.553 -1.823,-0.3713 -2.3888,0.8768 -2.142,0.9288 0.1451,0.0304 0.3213,-0.66 0.7228,-0.7634 0.3003,-0.0772 0.9805,-0.1047 1.4452,-0.0028 0.5611,0.1234 1.1497,0.3149 1.5512,0.4731 1.1851,0.4658 2.4539,1.6212 2.2012,2.9352 -0.1157,-0.1585 -0.3507,-0.4113 -0.6924,-0.3935 -0.1678,-0.0031 -0.2107,0.2715 -0.0367,0.2502 0.7843,-0.0762 0.4938,1.5503 1.0218,2.0841 0.6878,-0.1418 -0.422,-0.5931 -0.0544,-1.9587 z"
   id="path12" />
  <path
   class="fil3"
   d="m 30.349,32.1158 c -0.1496,-0.4744 -0.9162,-0.9846 -1.1904,-0.6104 -0.2494,0.3989 0.2606,0.6431 1.188,0.65 0.0211,-0.0082 0.0176,-0.022 0.0024,-0.0396 z"
   id="path13" />
  <path
   class="fil3"
   d="m 30.3728,32.1296 c 0.3356,-0.3666 0.3947,-1.2857 -0.0665,-1.3364 -0.4704,-0.0165 -0.427,0.5478 0.0307,1.354 0.0175,0.0141 0.0279,0.0044 0.0358,-0.0176 z"
   id="path14" />
  <path
   class="fil3"
   d="m 30.3726,32.1571 c 0.4851,0.1072 1.3106,-0.301 1.1237,-0.7258 -0.2209,-0.4155 -0.6873,-0.0958 -1.1571,0.7038 -0.0032,0.0224 0.0104,0.0259 0.0334,0.022 z"
   id="path15" />
  <path
   class="fil3"
   d="m 30.3485,32.1706 c 0.1499,0.474 0.9161,0.9847 1.1905,0.6105 0.2494,-0.399 -0.2605,-0.6432 -1.1881,-0.6505 -0.0208,0.0086 -0.0175,0.0224 -0.0024,0.04 z"
   id="path16" />
  <path
   class="fil3"
   d="m 30.3249,32.1568 c -0.3357,0.3666 -0.3946,1.2857 0.0665,1.3361 0.4703,0.0166 0.4269,-0.5471 -0.0308,-1.354 -0.0176,-0.0141 -0.0279,-0.0042 -0.0357,0.0179 z"
   id="path17" />
  <path
   class="fil3"
   d="m 30.3249,32.1292 c -0.485,-0.1075 -1.3105,0.3011 -1.1236,0.7256 0.2207,0.4155 0.6873,0.0963 1.1571,-0.7035 0.0034,-0.0224 -0.0104,-0.0262 -0.0335,-0.0221 z"
   id="path18" />
  <path
   class="fil4"
   d="m 30.3487,32.3694 c 0.1249,0 0.2265,-0.1013 0.2265,-0.226 0,-0.1251 -0.1016,-0.2271 -0.2265,-0.2271 -0.1247,0 -0.2265,0.102 -0.2265,0.2271 0,0.1247 0.1018,0.226 0.2265,0.226 z"
   id="path19" />
  <path
   class="fil3"
   d="m 26.032,24.1074 c -0.1724,-0.5465 -1.0559,-1.1349 -1.372,-0.7036 -0.2877,0.4596 0.3004,0.7411 1.3692,0.7493 0.0242,-0.0096 0.0202,-0.0254 0.0028,-0.0457 z"
   id="path20" />
  <path
   class="fil3"
   d="m 26.0594,24.1232 c 0.3869,-0.4224 0.4547,-1.4817 -0.0768,-1.54 -0.5419,-0.0188 -0.4918,0.6308 0.0356,1.5607 0.0204,0.0162 0.0321,0.0048 0.0412,-0.0207 z"
   id="path21" />
  <path
   class="fil3"
   d="m 26.0592,24.1552 c 0.5593,0.1237 1.5107,-0.3472 1.2954,-0.8368 -0.2546,-0.4785 -0.7924,-0.1106 -1.334,0.8113 -0.0036,0.0259 0.0123,0.03 0.0386,0.0255 z"
   id="path22" />
  <path
   class="fil3"
   d="m 26.0315,24.1711 c 0.1726,0.546 1.0559,1.1344 1.3723,0.7031 0.2873,-0.4595 -0.3004,-0.7414 -1.3696,-0.7493 -0.0241,0.0096 -0.02,0.0252 -0.0027,0.0462 z"
   id="path23" />
  <path
   class="fil3"
   d="m 26.0041,24.1549 c -0.3869,0.4224 -0.4547,1.4817 0.0768,1.54 0.5421,0.0185 0.492,-0.6308 -0.0355,-1.5607 -0.0205,-0.0162 -0.0322,-0.0048 -0.0413,0.0207 z"
   id="path24" />
  <path
   class="fil3"
   d="m 26.0044,24.1228 c -0.5593,-0.1233 -1.5108,0.347 -1.2953,0.8369 0.2546,0.4785 0.7922,0.1106 1.3338,-0.8113 0.0037,-0.0259 -0.0119,-0.0304 -0.0385,-0.0256 z"
   id="path25" />
  <path
   class="fil4"
   d="m 26.0318,24.4002 c 0.1438,0 0.2614,-0.1172 0.2614,-0.2612 0,-0.144 -0.1176,-0.2611 -0.2614,-0.2611 -0.1438,0 -0.2611,0.1171 -0.2611,0.2611 0,0.144 0.1173,0.2612 0.2611,0.2612 z"
   id="path26" />
  <path
   class="fil3"
   d="m 27.1687,29.4214 c -0.1023,-0.3249 -0.6273,-0.6746 -0.8153,-0.4182 -0.1707,0.2735 0.1785,0.4406 0.8138,0.4454 0.0142,-0.0055 0.0118,-0.0151 0.0015,-0.0272 z"
   id="path27" />
  <path
   class="fil3"
   d="m 27.1851,29.4307 c 0.2297,-0.2508 0.2701,-0.8802 -0.0457,-0.915 -0.3219,-0.011 -0.2923,0.3751 0.0211,0.9277 0.0122,0.0093 0.019,0.0025 0.0246,-0.0127 z"
   id="path28" />
  <path
   class="fil3"
   d="m 27.1851,29.4496 c 0.3321,0.0734 0.8974,-0.206 0.7694,-0.4967 -0.1512,-0.2846 -0.4707,-0.0655 -0.7925,0.4819 -0.0021,0.0152 0.0071,0.018 0.0231,0.0148 z"
   id="path29" />
  <path
   class="fil3"
   d="m 27.1684,29.4593 c 0.1026,0.3242 0.6275,0.6739 0.8152,0.4176 0.1709,-0.2729 -0.1782,-0.4403 -0.8133,-0.4452 -0.0145,0.0059 -0.0123,0.0152 -0.0019,0.0276 z"
   id="path30" />
  <path
   class="fil3"
   d="m 27.1523,29.4496 c -0.2299,0.2509 -0.2704,0.8806 0.0453,0.9151 0.3223,0.011 0.2925,-0.3752 -0.021,-0.9271 -0.0122,-0.0096 -0.0191,-0.0031 -0.0243,0.012 z"
   id="path31" />
  <path
   class="fil3"
   d="m 27.1523,29.4304 c -0.3322,-0.0734 -0.8976,0.2067 -0.7696,0.4974 0.1513,0.2842 0.4708,0.0658 0.7925,-0.4823 0.0023,-0.0151 -0.0072,-0.0175 -0.0229,-0.0151 z"
   id="path32" />
  <path
   class="fil4"
   d="m 27.1687,29.595 c 0.0855,0 0.155,-0.0692 0.155,-0.155 0,-0.0854 -0.0695,-0.155 -0.155,-0.155 -0.0856,0 -0.1552,0.0696 -0.1552,0.155 0,0.0858 0.0696,0.155 0.1552,0.155 z"
   id="path33" />
  <path
   class="fil1"
   d="m 35.0699,32.7359 h -0.4918 c -0.2062,0 -0.3602,0.0152 -0.4619,0.0476 -0.1019,0.0313 -0.185,0.0772 -0.2497,0.1364 -0.0631,0.0597 -0.1104,0.131 -0.139,0.215 -0.0296,0.0829 -0.0434,0.176 -0.0434,0.278 0,0.0994 0.0148,0.1905 0.0473,0.2744 0.0309,0.0833 0.0793,0.157 0.1451,0.2187 0.0658,0.0611 0.149,0.1094 0.2508,0.1429 0.102,0.0346 0.247,0.0508 0.4372,0.0508 h 0.5054 z m 0.9524,3.8446 c 0,0.0254 -0.0078,0.0458 -0.0214,0.0649 -0.0148,0.0172 -0.0396,0.0331 -0.0742,0.0448 -0.0362,0.0123 -0.0846,0.0208 -0.1466,0.0271 -0.0608,0.0057 -0.1378,0.0103 -0.231,0.0103 -0.0944,0 -0.1714,-0.0046 -0.2322,-0.0103 -0.0608,-0.0063 -0.1094,-0.0148 -0.1478,-0.0271 -0.0372,-0.0117 -0.0632,-0.0276 -0.0782,-0.0448 -0.0138,-0.0191 -0.021,-0.0395 -0.021,-0.0649 v -1.7611 h -0.3528 c -0.1464,0 -0.257,0.0152 -0.3344,0.0451 -0.0754,0.0286 -0.1434,0.0734 -0.2032,0.1341 -0.0584,0.0614 -0.112,0.1369 -0.1578,0.2272 -0.0458,0.091 -0.0905,0.1986 -0.134,0.3214 l -0.3576,1.0198 c -0.011,0.0286 -0.0271,0.0537 -0.0472,0.0745 -0.0186,0.0197 -0.0486,0.037 -0.0882,0.0515 -0.0412,0.012 -0.093,0.0215 -0.1588,0.0268 -0.066,0.0049 -0.1492,0.0078 -0.251,0.0078 -0.1118,0 -0.1998,-0.0046 -0.2632,-0.0124 -0.0648,-0.0063 -0.1142,-0.0162 -0.1476,-0.0303 -0.0336,-0.0138 -0.0558,-0.0286 -0.066,-0.0459 -0.01,-0.0159 -0.0136,-0.0346 -0.0136,-0.0547 0,-0.0236 0.0036,-0.0532 0.0125,-0.0882 0.0087,-0.0359 0.026,-0.0878 0.0523,-0.1587 l 0.3526,-0.9239 c 0.047,-0.1217 0.0942,-0.2276 0.1426,-0.3165 0.0482,-0.0892 0.1019,-0.17 0.1614,-0.242 0.0597,-0.0712 0.123,-0.1316 0.1888,-0.181 0.067,-0.0472 0.1404,-0.086 0.2211,-0.116 -0.1503,-0.0406 -0.2831,-0.0946 -0.3987,-0.1612 -0.1156,-0.0674 -0.2124,-0.1482 -0.2915,-0.2435 -0.0785,-0.0959 -0.1381,-0.2063 -0.1779,-0.3316 -0.0396,-0.1241 -0.0596,-0.2646 -0.0596,-0.4194 0,-0.2142 0.0362,-0.4075 0.1106,-0.5799 0.0732,-0.1743 0.1838,-0.3218 0.329,-0.4427 0.1455,-0.1213 0.3266,-0.2156 0.5438,-0.2815 0.2174,-0.0671 0.5204,-0.1009 0.9078,-0.1009 h 1.1536 c 0.0768,0 0.1426,0.0238 0.1975,0.0713 0.0545,0.0472 0.0819,0.124 0.0819,0.2308 z"
   id="path34" />
  <path
   class="fil5"
   d="m 39.1139,33.6168 c 0,0.074 -0.0036,0.1386 -0.0112,0.1898 -0.0062,0.0522 -0.016,0.0942 -0.0284,0.1266 -0.0126,0.0311 -0.0264,0.054 -0.0434,0.067 -0.0174,0.0138 -0.0373,0.0201 -0.0624,0.0201 h -1.0552 v 2.5602 c 0,0.0254 -0.0062,0.0458 -0.0212,0.0649 -0.0146,0.0172 -0.0398,0.0331 -0.0746,0.0448 -0.0358,0.0123 -0.0818,0.0208 -0.14,0.0271 -0.0585,0.0057 -0.1317,0.0103 -0.2226,0.0103 -0.0894,0 -0.1638,-0.0046 -0.221,-0.0103 -0.0582,-0.0063 -0.1054,-0.0148 -0.14,-0.0271 -0.0364,-0.0117 -0.061,-0.0276 -0.0748,-0.0448 -0.0148,-0.0191 -0.0222,-0.0395 -0.0222,-0.0649 v -3.0727 c 0,-0.0971 0.021,-0.1708 0.062,-0.2198 0.041,-0.0501 0.1054,-0.0759 0.1924,-0.0759 h 1.7172 c 0.0251,0 0.045,0.0071 0.0624,0.0208 0.017,0.0127 0.0308,0.0353 0.0434,0.0674 0.0124,0.0307 0.0222,0.0734 0.0284,0.1253 0.0076,0.0518 0.0112,0.1157 0.0112,0.1912 z"
   id="path35" />
  <path
   class="fil5"
   d="m 41.9115,34.9626 c 0,-0.1601 -0.0126,-0.3076 -0.0384,-0.4417 -0.025,-0.1354 -0.0684,-0.2518 -0.1292,-0.3513 -0.061,-0.0999 -0.1416,-0.1778 -0.242,-0.2325 -0.1008,-0.0561 -0.2273,-0.0843 -0.3801,-0.0843 -0.1353,0 -0.2545,0.0247 -0.3565,0.0744 -0.1016,0.0494 -0.185,0.1231 -0.2505,0.2184 -0.0663,0.0959 -0.1145,0.2113 -0.1481,0.3453 -0.0322,0.1359 -0.0482,0.2879 -0.0482,0.4608 0,0.1601 0.0123,0.3065 0.0394,0.442 0.0264,0.1337 0.0699,0.2508 0.1294,0.351 0.0597,0.0995 0.1404,0.1771 0.2422,0.2311 0.1018,0.0547 0.227,0.0822 0.3774,0.0822 0.139,0 0.2585,-0.0261 0.3612,-0.0762 0.102,-0.0494 0.185,-0.121 0.2508,-0.2159 0.0644,-0.0949 0.1128,-0.2082 0.1454,-0.3433 0.0308,-0.1344 0.0472,-0.2882 0.0472,-0.46 z m 0.9426,-0.037 c 0,0.2769 -0.0374,0.5288 -0.1094,0.7574 -0.0732,0.2268 -0.1838,0.4247 -0.3316,0.5888 -0.1477,0.1651 -0.3328,0.2928 -0.5562,0.3824 -0.2236,0.0889 -0.4842,0.1337 -0.7824,0.1337 -0.2879,0 -0.5388,-0.0395 -0.7524,-0.1189 -0.2136,-0.0811 -0.3911,-0.1972 -0.5314,-0.3507 -0.1402,-0.1527 -0.2446,-0.3397 -0.313,-0.563 -0.0682,-0.2226 -0.1016,-0.4773 -0.1016,-0.7638 0,-0.2769 0.037,-0.5288 0.1102,-0.7588 0.0748,-0.2286 0.185,-0.4247 0.3331,-0.5888 0.1487,-0.1637 0.3327,-0.2903 0.5549,-0.3799 0.2224,-0.091 0.4818,-0.1358 0.7808,-0.1358 0.2908,0 0.5428,0.0405 0.7564,0.1178 0.2138,0.0804 0.3898,0.1958 0.529,0.3482 0.1402,0.1527 0.2432,0.3418 0.3116,0.5641 0.067,0.2233 0.102,0.4791 0.102,0.7673 z"
   id="path36" />
  <path
   class="fil5"
   d="m 45.6885,33.9431 h -0.7748 c -0.041,0.3055 -0.0866,0.5687 -0.1352,0.7884 -0.0484,0.2184 -0.0992,0.4075 -0.1526,0.5655 -0.0534,0.1574 -0.1094,0.2879 -0.1689,0.3895 -0.0595,0.1023 -0.1181,0.1916 -0.1765,0.2681 h 1.408 z m -1.8698,3.8234 c 0,0.0226 -0.006,0.0406 -0.0188,0.0568 -0.011,0.0162 -0.0332,0.0289 -0.0643,0.0399 -0.0323,0.0112 -0.0733,0.0197 -0.1229,0.0264 -0.05,0.0046 -0.1118,0.0085 -0.1864,0.0085 -0.078,0 -0.1428,-0.0039 -0.1936,-0.0085 -0.051,-0.0067 -0.092,-0.0152 -0.123,-0.0264 -0.0324,-0.011 -0.0534,-0.0237 -0.0656,-0.0399 -0.0126,-0.0162 -0.0187,-0.0342 -0.0187,-0.0568 l 1e-4,-1.6256 c 0,-0.073 0.012,-0.1214 0.0372,-0.1475 0.0232,-0.0247 0.0706,-0.0388 0.1414,-0.0388 h 0.1778 c 0.078,-0.1019 0.1502,-0.2159 0.2182,-0.3446 0.0684,-0.1281 0.1318,-0.2886 0.1914,-0.4791 0.0596,-0.1895 0.1142,-0.4177 0.1638,-0.6833 0.0496,-0.2657 0.0956,-0.5839 0.1404,-0.955 0.0036,-0.0434 0.0124,-0.0829 0.0232,-0.1182 0.0104,-0.0346 0.0264,-0.0642 0.045,-0.0892 0.0198,-0.024 0.0446,-0.042 0.0746,-0.0547 0.031,-0.0127 0.0682,-0.0184 0.1116,-0.0184 h 2.0042 c 0.0866,0 0.1516,0.0258 0.1922,0.0759 0.0412,0.049 0.0622,0.1227 0.0622,0.2198 v 2.4468 h 0.3712 c 0.066,0 0.112,0.0141 0.1404,0.0388 0.0274,0.0261 0.0408,0.0745 0.0408,0.1475 v 1.6256 c 0,0.0226 -0.0058,0.0406 -0.0174,0.0568 -0.0122,0.0162 -0.0346,0.0289 -0.0656,0.0399 -0.0312,0.0112 -0.073,0.0197 -0.1242,0.0264 -0.0508,0.0046 -0.1141,0.0085 -0.1922,0.0085 -0.0758,0 -0.138,-0.0039 -0.1888,-0.0085 -0.0512,-0.0067 -0.0922,-0.0152 -0.1218,-0.0264 -0.031,-0.011 -0.0522,-0.0237 -0.066,-0.0399 -0.0134,-0.0162 -0.0198,-0.0342 -0.0198,-0.0568 V 36.705 h -2.5466 z"
   id="path37" />
  <path
   class="fil5"
   d="m 49.3369,34.8748 c 0,0.1411 -0.0136,0.2395 -0.04,0.2952 -0.027,0.0558 -0.0694,0.0837 -0.1276,0.0837 h -1.5124 c -0.0608,0 -0.1044,-0.029 -0.1318,-0.0861 -0.0258,-0.0568 -0.0398,-0.1538 -0.0398,-0.2928 0,-0.1355 0.014,-0.2311 0.0398,-0.2868 0.0274,-0.0561 0.071,-0.0833 0.1317,-0.0833 h 1.5125 c 0.0298,0 0.0545,0.0046 0.0742,0.0173 0.0212,0.0123 0.0388,0.0335 0.0534,0.0621 0.015,0.0286 0.0248,0.0681 0.0313,0.1164 0.0059,0.0483 0.0087,0.1072 0.0087,0.1743 z"
   id="path38" />
  <path
   class="fil1"
   d="m 55.5502,36.5745 c 0,0.0236 -0.0061,0.0462 -0.0198,0.0645 -0.0141,0.0198 -0.0374,0.036 -0.0734,0.0469 -0.0342,0.0131 -0.0818,0.023 -0.1393,0.0293 -0.0579,0.0078 -0.1327,0.0124 -0.2223,0.0124 -0.0864,0 -0.1602,-0.0046 -0.2184,-0.0124 -0.0578,-0.0063 -0.1044,-0.0162 -0.1375,-0.0293 -0.035,-0.0109 -0.0586,-0.0271 -0.0734,-0.0469 -0.0148,-0.0183 -0.0208,-0.0409 -0.0208,-0.0645 v -3.831 h -0.0078 l -1.3645,3.8271 c -0.0099,0.0314 -0.0247,0.0571 -0.0473,0.0783 -0.0222,0.0201 -0.0519,0.036 -0.0893,0.0487 -0.0373,0.0127 -0.0857,0.0197 -0.1443,0.0236 -0.0571,0.0035 -0.1277,0.0064 -0.2099,0.0064 -0.0832,0 -0.1524,-0.0046 -0.2106,-0.0103 C 52.5127,36.711 52.4644,36.7025 52.4274,36.6888 52.39,36.675 52.3603,36.6588 52.3381,36.639 52.3166,36.6207 52.3018,36.5967 52.2944,36.5706 l -1.3173,-3.8271 h -0.0066 v 3.831 c 0,0.0236 -0.0072,0.0462 -0.0207,0.0645 -0.0127,0.0198 -0.0373,0.036 -0.0747,0.0469 -0.0358,0.0131 -0.0818,0.023 -0.1392,0.0293 -0.0568,0.0078 -0.1304,0.0124 -0.2208,0.0124 -0.087,0 -0.16,-0.0046 -0.2172,-0.0124 -0.0584,-0.0063 -0.1056,-0.0162 -0.1404,-0.0293 -0.0362,-0.0109 -0.0598,-0.0271 -0.0732,-0.0469 -0.0136,-0.0183 -0.02,-0.0409 -0.02,-0.0645 v -4.1948 c 0,-0.124 0.0324,-0.2181 0.0982,-0.2839 0.066,-0.0658 0.1526,-0.0985 0.2616,-0.0985 h 0.6262 c 0.1118,0 0.2072,0.009 0.2871,0.0276 0.0808,0.0186 0.15,0.0485 0.2066,0.0909 0.0586,0.042 0.1076,0.0979 0.1471,0.1678 0.0385,0.0692 0.072,0.1533 0.1016,0.2556 l 1.0185,2.8048 h 0.0148 l 1.0538,-2.7976 c 0.0324,-0.1016 0.0677,-0.1874 0.1047,-0.2583 0.0371,-0.0689 0.0808,-0.1265 0.1305,-0.1699 0.0494,-0.0448 0.1091,-0.0747 0.1761,-0.0933 0.0681,-0.0186 0.1478,-0.0276 0.237,-0.0276 h 0.6439 c 0.0652,0 0.1224,0.009 0.17,0.0248 0.0469,0.0179 0.085,0.0427 0.115,0.0761 0.0314,0.0321 0.0536,0.0717 0.0692,0.1192 0.0165,0.0469 0.0239,0.102 0.0239,0.1623 z"
   id="path39" />
  <path
   class="fil5"
   d="m 58.3872,35.2025 h -0.3486 c -0.1481,0 -0.2744,0.0113 -0.3785,0.0318 -0.1048,0.0232 -0.1887,0.0546 -0.2547,0.0984 -0.066,0.0444 -0.1129,0.097 -0.1439,0.1591 -0.0304,0.0617 -0.0452,0.133 -0.0452,0.2124 0,0.1361 0.0427,0.243 0.1291,0.3203 0.0858,0.0779 0.2053,0.1164 0.3577,0.1164 0.1292,0 0.2473,-0.0318 0.3553,-0.0981 0.108,-0.0656 0.2173,-0.1612 0.3288,-0.2875 z m 0.8989,1.3892 c 0,0.0346 -0.0124,0.0611 -0.0371,0.0812 -0.024,0.018 -0.0621,0.0321 -0.1143,0.0405 -0.0522,0.0089 -0.1287,0.0142 -0.2307,0.0142 -0.1093,0 -0.1891,-0.0053 -0.2385,-0.0142 C 58.6158,36.705 58.5809,36.6909 58.5604,36.6729 58.5399,36.6528 58.529,36.6263 58.529,36.5917 v -0.2585 c -0.133,0.1432 -0.2861,0.2547 -0.4561,0.3358 -0.1708,0.0794 -0.3609,0.1189 -0.5698,0.1189 -0.1725,0 -0.3302,-0.0222 -0.4741,-0.0667 -0.1439,-0.0451 -0.2695,-0.1122 -0.375,-0.2 -0.1055,-0.0882 -0.1877,-0.199 -0.2455,-0.3295 -0.0586,-0.1312 -0.0872,-0.2843 -0.0872,-0.4579 0,-0.1902 0.0371,-0.3539 0.1104,-0.4928 0.0741,-0.1405 0.1849,-0.2548 0.3313,-0.3468 0.1464,-0.0907 0.3288,-0.157 0.5475,-0.2011 0.2187,-0.043 0.472,-0.066 0.7606,-0.066 h 0.3161 V 34.431 c 0,-0.1016 -0.0099,-0.1909 -0.0311,-0.2667 -0.0197,-0.0773 -0.0543,-0.1401 -0.1023,-0.1912 -0.0462,-0.0508 -0.1093,-0.0879 -0.188,-0.1129 -0.0794,-0.0254 -0.1764,-0.036 -0.2928,-0.036 -0.1531,0 -0.2896,0.0162 -0.4099,0.0512 -0.1193,0.0328 -0.2265,0.0702 -0.3179,0.1125 -0.0917,0.0406 -0.169,0.0787 -0.2311,0.1118 -0.0617,0.0346 -0.1114,0.0512 -0.1513,0.0512 -0.0261,0 -0.0497,-0.0078 -0.0706,-0.0254 -0.02,-0.017 -0.0373,-0.0406 -0.0515,-0.0731 -0.0116,-0.0307 -0.0232,-0.0695 -0.0307,-0.1153 -0.0073,-0.0473 -0.0102,-0.0981 -0.0102,-0.1542 0,-0.0744 0.0053,-0.1344 0.0177,-0.1771 0.012,-0.0441 0.0359,-0.0836 0.0695,-0.1182 0.0335,-0.0359 0.0927,-0.0747 0.1778,-0.1167 0.0853,-0.0424 0.1848,-0.0815 0.2988,-0.1178 0.1132,-0.0371 0.2384,-0.0664 0.3728,-0.0897 0.1341,-0.0236 0.2727,-0.0352 0.416,-0.0352 0.254,0 0.4727,0.0254 0.6526,0.0748 0.1821,0.0501 0.3295,0.127 0.4456,0.2303 0.1171,0.103 0.2014,0.2353 0.255,0.398 0.0537,0.1619 0.0805,0.3552 0.0805,0.5771 z"
   id="path40" />
  <path
   class="fil5"
   d="m 62.5126,34.9764 c 0,-0.138 -0.0106,-0.271 -0.0304,-0.3973 -0.0215,-0.128 -0.0557,-0.2409 -0.1051,-0.3404 -0.0505,-0.0995 -0.1154,-0.1792 -0.1979,-0.2385 -0.0801,-0.0592 -0.182,-0.0889 -0.303,-0.0889 -0.0604,0 -0.1203,0.0089 -0.1796,0.0265 -0.0596,0.019 -0.121,0.0494 -0.182,0.09 -0.0628,0.0405 -0.126,0.0945 -0.192,0.1601 -0.0645,0.0646 -0.1337,0.1468 -0.2074,0.2431 v 1.0692 c 0.1295,0.1623 0.2522,0.2886 0.3676,0.3761 0.1164,0.0896 0.2385,0.133 0.3637,0.133 0.1196,0 0.2212,-0.03 0.3041,-0.0907 0.0833,-0.0606 0.1524,-0.1397 0.2046,-0.2384 0.0537,-0.0981 0.0939,-0.2085 0.1196,-0.3324 0.0254,-0.1231 0.0378,-0.2473 0.0378,-0.3714 z m 0.9535,-0.0649 c 0,0.2885 -0.0314,0.5492 -0.0928,0.78 -0.0627,0.2324 -0.1524,0.4286 -0.2712,0.5912 -0.1193,0.1626 -0.2667,0.2879 -0.4428,0.375 -0.1781,0.0864 -0.3806,0.1302 -0.6092,0.1302 -0.0942,0 -0.1814,-0.0085 -0.2593,-0.0272 -0.0794,-0.0176 -0.1556,-0.0462 -0.2297,-0.0836 -0.0737,-0.037 -0.1471,-0.0839 -0.2198,-0.14 -0.0726,-0.0558 -0.1478,-0.1203 -0.2261,-0.1958 v 1.5271 c 0,0.0251 -0.0063,0.0477 -0.0208,0.0657 -0.0152,0.0197 -0.0402,0.0359 -0.0748,0.0497 -0.0356,0.0138 -0.0822,0.0236 -0.14,0.0307 -0.0582,0.0078 -0.1316,0.0099 -0.2223,0.0099 -0.0896,0 -0.164,-0.0021 -0.2212,-0.0099 -0.0582,-0.0071 -0.1051,-0.0169 -0.1404,-0.0307 -0.036,-0.0138 -0.0607,-0.03 -0.0744,-0.0497 -0.0152,-0.018 -0.0226,-0.0406 -0.0226,-0.0657 v -4.5321 c 0,-0.0233 0.0071,-0.0459 0.019,-0.0631 0.0124,-0.0191 0.0336,-0.0339 0.0635,-0.0463 0.0297,-0.0127 0.0702,-0.0215 0.1196,-0.0268 0.0505,-0.0067 0.1122,-0.0091 0.1884,-0.0091 0.0716,0 0.1337,0.0024 0.1831,0.0091 0.0501,0.0053 0.0896,0.0141 0.1196,0.0268 0.0307,0.0124 0.0522,0.0272 0.0649,0.0463 0.0109,0.0172 0.0162,0.0398 0.0162,0.0631 l 1e-4,0.3821 c 0.0952,-0.0967 0.1883,-0.1821 0.2786,-0.2565 0.0921,-0.0737 0.1838,-0.1355 0.2787,-0.1856 0.0956,-0.0494 0.1919,-0.0867 0.2928,-0.1118 0.1002,-0.0233 0.2085,-0.0363 0.3228,-0.0363 0.2371,0 0.4392,0.0479 0.6072,0.1411 0.1675,0.0931 0.3026,0.2208 0.4088,0.3834 0.1052,0.1627 0.1824,0.3514 0.2304,0.5677 0.049,0.2159 0.0737,0.4455 0.0737,0.6911 z"
   id="path41" />
  <path
   class="fil5"
   d="m 67.2451,36.6178 c 0,0.0187 -0.0053,0.035 -0.0194,0.0491 -0.0138,0.013 -0.0371,0.024 -0.0706,0.0324 -0.0335,0.0078 -0.0808,0.0152 -0.1407,0.0205 -0.0596,0.0049 -0.1334,0.0078 -0.2233,0.0078 -0.1013,0 -0.1845,-0.0029 -0.2505,-0.0078 -0.066,-0.0053 -0.1186,-0.0127 -0.157,-0.0205 -0.0381,-0.0084 -0.067,-0.0208 -0.0829,-0.0381 -0.0176,-0.0172 -0.0311,-0.037 -0.0413,-0.0617 l -0.3016,-0.7751 c -0.0356,-0.1044 -0.0759,-0.1908 -0.1182,-0.2621 -0.042,-0.0705 -0.0892,-0.1266 -0.14,-0.1686 -0.0508,-0.0423 -0.1091,-0.073 -0.175,-0.0907 -0.0646,-0.0187 -0.1404,-0.0278 -0.2247,-0.0278 h -0.1866 v 1.3243 c 0,0.0169 -0.0068,0.0328 -0.0248,0.0494 -0.0172,0.0152 -0.0433,0.0296 -0.0804,0.0413 -0.036,0.0123 -0.0829,0.0208 -0.1418,0.0271 -0.0582,0.0057 -0.1277,0.0103 -0.211,0.0103 -0.0843,0 -0.1562,-0.0046 -0.2145,-0.0103 C 64.3834,36.711 64.335,36.7025 64.299,36.6902 64.2631,36.6785 64.2369,36.6641 64.2207,36.6489 64.2049,36.6323 64.1974,36.6164 64.1974,36.5995 v -3.2847 c 0,-0.0169 0.0074,-0.0332 0.0233,-0.0494 0.0163,-0.0162 0.0423,-0.0286 0.0783,-0.0399 0.036,-0.0113 0.0843,-0.0201 0.1418,-0.0254 0.0583,-0.0067 0.1302,-0.0091 0.2145,-0.0091 0.0833,0 0.1528,0.0024 0.211,0.0091 0.0589,0.0053 0.1058,0.0141 0.1418,0.0254 0.0371,0.0113 0.0632,0.0237 0.0804,0.0399 0.0181,0.0162 0.0247,0.0325 0.0247,0.0494 l 10e-5,1.2619 h 0.1866 c 0.0744,0 0.1421,-0.0085 0.2035,-0.0272 0.0604,-0.0176 0.1157,-0.0483 0.1651,-0.091 0.0494,-0.042 0.0956,-0.0988 0.1394,-0.1693 0.0427,-0.0702 0.0818,-0.1574 0.121,-0.2614 l 0.2723,-0.6993 c 0.0074,-0.0232 0.0198,-0.0448 0.037,-0.0631 0.0166,-0.0194 0.0424,-0.0325 0.0784,-0.0437 0.0346,-0.011 0.0829,-0.0187 0.1453,-0.0233 0.0625,-0.005 0.1447,-0.0074 0.2455,-0.0074 0.0893,0 0.163,0.0024 0.2205,0.0074 0.0568,0.0046 0.1016,0.0123 0.1341,0.0208 0.0332,0.0102 0.0554,0.0215 0.067,0.0349 0.0124,0.0141 0.0177,0.0296 0.0177,0.0498 0,0.0236 -0.0039,0.0532 -0.0145,0.0867 -0.0088,0.0335 -0.0254,0.0794 -0.0505,0.1383 l -0.2585,0.6177 c -0.0505,0.1253 -0.1038,0.2304 -0.1609,0.3161 -0.0575,0.0854 -0.1157,0.1556 -0.176,0.2113 -0.0579,0.0565 -0.1186,0.1013 -0.18,0.1359 -0.0589,0.0338 -0.1171,0.0596 -0.1732,0.08 v 0.0071 c 0.0745,0.031 0.1454,0.0656 0.2103,0.1016 0.0653,0.0363 0.1287,0.084 0.188,0.1418 0.0579,0.0582 0.1154,0.1302 0.1708,0.2173 0.0543,0.0854 0.1086,0.1888 0.1626,0.3108 l 0.3143,0.7274 c 0.0155,0.0307 0.0265,0.0579 0.0353,0.0815 0.0092,0.0226 0.0162,0.0438 0.0201,0.0625 0.0053,0.0173 0.0088,0.0331 0.0099,0.0444 7e-4,0.0124 7e-4,0.024 7e-4,0.0335 z"
   id="path42" />
  <path
   class="fil5"
   d="m 69.8754,34.6024 c 0.0074,-0.2568 -0.0434,-0.4593 -0.1545,-0.606 -0.1097,-0.1464 -0.2801,-0.2195 -0.5108,-0.2195 -0.1171,0 -0.2177,0.0212 -0.3031,0.0646 -0.0871,0.0437 -0.158,0.103 -0.2148,0.1767 -0.0575,0.0745 -0.1013,0.1609 -0.1313,0.2618 -0.0303,0.1002 -0.0479,0.2085 -0.0529,0.3224 z m 0.888,0.2621 c 0,0.1108 -0.0251,0.1941 -0.0752,0.2473 -0.049,0.0537 -0.1178,0.0798 -0.205,0.0798 H 68.508 c 0,0.1386 0.0163,0.2638 0.0487,0.376 0.0332,0.1126 0.0857,0.2078 0.1566,0.2879 0.0717,0.0783 0.1634,0.1386 0.2766,0.1803 0.1129,0.0409 0.2484,0.0617 0.4061,0.0617 0.1601,0 0.3009,-0.0123 0.4208,-0.0346 0.1218,-0.024 0.2269,-0.049 0.3154,-0.0772 0.0882,-0.0268 0.1619,-0.0533 0.2194,-0.0759 0.059,-0.0229 0.1059,-0.0346 0.1419,-0.0346 0.0226,0 0.0412,0.0039 0.0546,0.0124 0.0152,0.0088 0.0272,0.0236 0.0374,0.0462 0.0085,0.0208 0.0163,0.0519 0.0198,0.0931 0.0035,0.0399 0.0053,0.0893 0.0053,0.1503 0,0.0526 -0.0018,0.0988 -0.0039,0.1366 -0.0024,0.037 -0.006,0.0694 -0.0109,0.0966 -0.0039,0.0265 -0.0113,0.0483 -0.0216,0.067 -0.0098,0.0187 -0.0218,0.0357 -0.0377,0.0523 -0.0162,0.0179 -0.0589,0.0409 -0.1295,0.0698 -0.0712,0.0282 -0.1598,0.0568 -0.2699,0.0854 -0.1096,0.0278 -0.2328,0.0525 -0.3735,0.0723 -0.1411,0.0208 -0.2918,0.0307 -0.4523,0.0307 -0.2878,0 -0.5408,-0.0364 -0.7585,-0.1094 -0.2162,-0.0716 -0.3972,-0.1824 -0.544,-0.3302 -0.1453,-0.1478 -0.2529,-0.3351 -0.3252,-0.5595 -0.0706,-0.2265 -0.1066,-0.4907 -0.1066,-0.7937 1e-4,-0.2883 0.0374,-0.549 0.1126,-0.7797 0.0748,-0.2325 0.1841,-0.4282 0.3267,-0.5895 0.1442,-0.1615 0.3185,-0.2847 0.5231,-0.369 0.205,-0.0853 0.4357,-0.1287 0.6925,-0.1287 0.272,0 0.5045,0.0405 0.6964,0.121 0.1926,0.0793 0.3517,0.1912 0.4745,0.3326 0.1245,0.1412 0.2148,0.3098 0.273,0.5045 0.0582,0.1937 0.0875,0.4046 0.0875,0.6322 z"
   id="path43" />
  <path
   class="fil5"
   d="m 73.907,33.6168 c 0,0.0793 -0.0036,0.1464 -0.0099,0.2 -0.006,0.0533 -0.0149,0.0959 -0.0272,0.1263 -0.0113,0.0328 -0.0279,0.0533 -0.0448,0.066 -0.019,0.0126 -0.0381,0.0187 -0.0603,0.0187 h -0.8185 v 2.5527 c 0,0.0254 -0.0077,0.0458 -0.0219,0.0649 -0.0144,0.0172 -0.0395,0.0331 -0.073,0.0448 -0.0331,0.0123 -0.0801,0.0208 -0.1404,0.0271 -0.0596,0.0057 -0.1337,0.0103 -0.2233,0.0103 -0.0868,0 -0.1605,-0.0046 -0.218,-0.0103 C 72.2112,36.711 72.1649,36.7025 72.1286,36.6902 72.094,36.6785 72.0704,36.6626 72.057,36.6454 72.0436,36.6263 72.0372,36.6059 72.0372,36.5805 v -2.5527 h -0.8184 c -0.0247,0 -0.0459,-0.0075 -0.0642,-0.0195 -0.0173,-0.0137 -0.0336,-0.0366 -0.0445,-0.0687 -0.0134,-0.0314 -0.0219,-0.0745 -0.0275,-0.1302 -0.0067,-0.0561 -0.0102,-0.1238 -0.0102,-0.2036 0,-0.0737 0.0035,-0.1344 0.0109,-0.1841 0.0074,-0.0494 0.018,-0.0907 0.0303,-0.1214 0.0106,-0.0321 0.0258,-0.0547 0.0434,-0.0674 0.0159,-0.0137 0.0371,-0.0208 0.0618,-0.0208 h 2.546 c 0.0222,0 0.0412,0.0071 0.0603,0.0208 0.0169,0.0127 0.0335,0.0353 0.0448,0.0674 0.0124,0.0307 0.0212,0.0734 0.0272,0.1253 0.0063,0.0518 0.0098,0.1157 0.0099,0.1912 z"
   id="path44" />
  <path
   class="fil6"
   d="m 33.9246,41.0865 c 0,-0.0656 -0.0109,-0.1242 -0.0319,-0.1771 -0.0212,-0.0519 -0.0517,-0.096 -0.0918,-0.1323 -0.04,-0.036 -0.0912,-0.0649 -0.1532,-0.085 -0.0615,-0.0198 -0.1436,-0.0297 -0.2456,-0.0297 h -0.3934 v 0.8481 h 0.402 c 0.0977,0 0.1766,-0.0095 0.2389,-0.0289 0.0621,-0.0194 0.1125,-0.0473 0.1525,-0.084 0.0389,-0.0377 0.0694,-0.0825 0.0906,-0.1344 0.021,-0.0525 0.0318,-0.1111 0.0319,-0.1767 z m 0.3243,-0.0215 c 0,0.091 -0.0145,0.1788 -0.0429,0.2631 -0.0286,0.084 -0.0746,0.1584 -0.1388,0.2226 -0.0632,0.0646 -0.148,0.1168 -0.2536,0.156 -0.1058,0.0391 -0.2499,0.0592 -0.432,0.0592 h -0.5683 c -0.0292,0 -0.0553,-0.0098 -0.0801,-0.0278 -0.0243,-0.0194 -0.0361,-0.0533 -0.0361,-0.1013 v -2.1004 c 0,-0.0473 0.0118,-0.0801 0.0361,-0.0995 0.0248,-0.0187 0.0501,-0.0279 0.0782,-0.0279 h 1.2222 c 0.0115,0 0.0208,0.0032 0.0294,0.0078 0.0087,0.0046 0.0155,0.0123 0.0212,0.0236 0.0054,0.0103 0.0093,0.0237 0.0117,0.0406 0.0026,0.0159 0.0038,0.0363 0.0038,0.0614 0,0.0211 -0.0012,0.0409 -0.0038,0.0578 -0.0024,0.0173 -0.0063,0.0307 -0.0117,0.0417 -0.0057,0.0095 -0.0125,0.0176 -0.02,0.0236 -0.0082,0.0046 -0.0173,0.0078 -0.0284,0.0078 h -1.0271 v 0.7373 H 33.44 c 0.148,0 0.2706,0.0155 0.366,0.0462 0.096,0.0296 0.1768,0.0734 0.2424,0.1305 0.0656,0.0568 0.1152,0.1263 0.1495,0.2071 0.0341,0.0808 0.051,0.1704 0.051,0.2706 z"
   id="path45" />
  <path
   class="fil6"
   d="m 36.1251,41.7225 c 0,0.0082 -0.0023,0.0159 -0.0074,0.0233 -0.005,0.0071 -0.0126,0.0131 -0.0238,0.0177 -0.0103,0.0038 -0.0258,0.007 -0.0453,0.0098 -0.0191,0.0029 -0.0434,0.0036 -0.0727,0.0036 -0.0291,0 -0.0534,-7e-4 -0.0727,-0.0036 -0.0198,-0.0028 -0.0354,-0.006 -0.0479,-0.0098 -0.0117,-0.0046 -0.0206,-0.0106 -0.0254,-0.0177 -0.0043,-0.0074 -0.0068,-0.0151 -0.0068,-0.0233 v -0.944 c 0,-0.0473 0.0012,-0.0956 0.003,-0.1446 0.0025,-0.0491 0.0058,-0.0978 0.0093,-0.1447 -0.0281,0.048 -0.0583,0.096 -0.0919,0.1429 -0.0335,0.0462 -0.0673,0.0931 -0.1007,0.139 l -0.6962,0.9514 c -0.0083,0.0096 -0.0159,0.0184 -0.0226,0.0254 -0.0064,0.0071 -0.0156,0.0131 -0.0254,0.0177 -0.0105,0.0035 -0.0237,0.0063 -0.0394,0.0084 -0.016,0.0022 -0.0353,0.0029 -0.0582,0.0029 -0.0267,0 -0.0488,-7e-4 -0.0653,-0.0036 -0.0174,-0.0028 -0.0312,-0.006 -0.041,-0.0098 -0.0105,-0.0046 -0.0181,-0.0106 -0.0219,-0.0177 -0.0041,-0.0074 -0.0069,-0.0151 -0.0069,-0.0233 v -1.6432 c 0,-0.0088 0.0028,-0.0159 0.0069,-0.024 0.0038,-0.007 0.0117,-0.0123 0.0238,-0.018 0.0112,-0.0042 0.0267,-0.0074 0.046,-0.0095 0.0194,-0.0021 0.0434,-0.0032 0.0713,-0.0032 0.058,0 0.0984,0.0053 0.12,0.0134 0.0218,0.0096 0.0331,0.0233 0.0331,0.0413 v 0.9483 c 0,0.0483 -0.0012,0.0952 -0.0039,0.1418 -0.0023,0.0469 -0.0054,0.0931 -0.0092,0.14 0.0279,-0.0469 0.056,-0.0917 0.0846,-0.1365 0.0285,-0.0441 0.0596,-0.0875 0.0918,-0.1302 l 0.7051,-0.9634 c 0.0076,-0.0102 0.015,-0.018 0.023,-0.0257 0.0076,-0.0075 0.0174,-0.0131 0.0293,-0.0173 0.0112,-0.0046 0.0248,-0.0064 0.0414,-0.0085 0.0153,-0.0021 0.0356,-0.0032 0.0611,-0.0032 0.0255,0 0.0472,0.0011 0.0648,0.0032 0.0172,0.0021 0.0317,0.0053 0.042,0.0095 0.0102,0.0057 0.0178,0.011 0.0221,0.018 0.0043,0.0081 0.006,0.0155 0.006,0.0258 z"
   id="path46" />
  <path
   class="fil6"
   d="m 37.8735,40.9094 c 0,-0.0833 -0.0064,-0.1644 -0.0186,-0.2424 -0.0133,-0.079 -0.0352,-0.1481 -0.0658,-0.2092 -0.0314,-0.0599 -0.0729,-0.1086 -0.1253,-0.1453 -0.0522,-0.0363 -0.1168,-0.055 -0.1946,-0.055 -0.0391,0 -0.077,0.006 -0.1151,0.0179 -0.0373,0.0117 -0.0758,0.0297 -0.1144,0.0547 -0.0389,0.0251 -0.0792,0.0572 -0.1221,0.0981 -0.0427,0.0406 -0.0871,0.0907 -0.1343,0.1503 v 0.6519 c 0.082,0.1009 0.1602,0.1778 0.2347,0.2314 0.0741,0.0537 0.1516,0.0801 0.2331,0.0801 0.0753,0 0.14,-0.0183 0.1942,-0.0547 0.0533,-0.0367 0.0976,-0.085 0.1312,-0.1457 0.0327,-0.0606 0.0575,-0.1291 0.0732,-0.2035 0.0164,-0.0755 0.0238,-0.1514 0.0238,-0.2286 z m 0.3171,-0.0342 c 0,0.1439 -0.0157,0.272 -0.0469,0.3859 -0.0303,0.114 -0.0763,0.2117 -0.1359,0.291 -0.0604,0.0798 -0.1352,0.1405 -0.2232,0.1842 -0.0891,0.0423 -0.1902,0.0639 -0.3047,0.0639 -0.0486,0 -0.0931,-0.0043 -0.1342,-0.0145 C 37.304,41.7762 37.2635,41.761 37.2244,41.7409 37.1846,41.7197 37.1455,41.694 37.1068,41.6622 37.0675,41.6305 37.0267,41.5938 36.9833,41.5507 v 0.8199 c 0,0.0095 -0.0028,0.0176 -0.0078,0.0257 -0.0048,0.0064 -0.0131,0.0127 -0.0234,0.0184 -0.0112,0.0046 -0.026,0.0088 -0.0453,0.0106 -0.02,0.0024 -0.045,0.0035 -0.0755,0.0035 -0.0282,0 -0.0529,-0.0011 -0.0726,-0.0035 -0.019,-0.0018 -0.0347,-0.006 -0.0459,-0.0106 -0.012,-0.0057 -0.0201,-0.012 -0.0237,-0.0184 -0.0045,-0.0081 -0.0069,-0.0162 -0.0069,-0.0257 v -2.2895 c 0,-0.0113 0.002,-0.0198 0.0055,-0.0265 0.0039,-0.0063 0.0113,-0.0116 0.0219,-0.0173 0.0113,-0.0042 0.0249,-0.0074 0.0421,-0.0095 0.0168,-0.0021 0.0374,-0.0032 0.0617,-0.0032 0.0255,0 0.0465,0.0011 0.0629,0.0032 0.0167,0.0021 0.0305,0.0053 0.0408,0.0095 0.0112,0.0057 0.0188,0.011 0.0233,0.0173 0.0041,0.0067 0.006,0.0152 0.006,0.0265 v 0.2205 c 0.0498,-0.0512 0.0975,-0.0953 0.1442,-0.1327 0.046,-0.0381 0.0921,-0.0691 0.1392,-0.0942 0.0466,-0.0243 0.0945,-0.0444 0.1436,-0.0561 0.0491,-0.013 0.1015,-0.0197 0.1563,-0.0197 0.1185,0 0.2201,0.0229 0.304,0.0698 0.0839,0.0459 0.1517,0.1087 0.2044,0.1888 0.0529,0.0804 0.0915,0.1735 0.1155,0.2797 0.0251,0.1062 0.037,0.2194 0.037,0.338 z"
   id="path47" />
  <path
   class="fil6"
   d="m 40.8004,41.7328 c 0,0.0081 -0.0024,0.0137 -0.0076,0.0194 -0.0044,0.006 -0.013,0.0102 -0.024,0.0137 -0.0121,0.0043 -0.0268,0.006 -0.0455,0.0081 -0.0193,0.0022 -0.0431,0.0029 -0.0721,0.0029 -0.0344,0 -0.0616,-7e-4 -0.0828,-0.0036 -0.0217,-0.0028 -0.0384,-0.006 -0.051,-0.0098 -0.0132,-0.0046 -0.0222,-0.0096 -0.0284,-0.017 -0.0062,-0.0067 -0.0109,-0.0141 -0.0145,-0.0222 l -0.1751,-0.423 C 40.2763,41.2466 40.2527,41.199 40.2279,41.1606 40.2029,41.1211 40.1751,41.089 40.1445,41.065 40.1143,41.0406 40.0794,41.0223 40.0401,41.0113 40.0008,40.999 39.9542,40.9933 39.9007,40.9933 h -0.1219 v 0.7416 c 0,0.0063 -0.0031,0.0116 -0.0093,0.0173 -0.0059,0.006 -0.0147,0.0102 -0.0274,0.0137 -0.0122,0.0043 -0.0269,0.006 -0.0463,0.0081 -0.0188,0.0022 -0.0412,0.0029 -0.0667,0.0029 -0.0255,0 -0.0479,-7e-4 -0.067,-0.0029 -0.0195,-0.0021 -0.0358,-0.0038 -0.0474,-0.0081 -0.0126,-0.0035 -0.0212,-0.0077 -0.0274,-0.0137 -0.0061,-0.0057 -0.0094,-0.011 -0.0094,-0.0173 v -0.7416 h -0.1216 c -0.0536,0 -0.1001,0.0057 -0.1406,0.018 -0.0398,0.011 -0.0758,0.0293 -0.1075,0.0537 -0.0312,0.024 -0.0596,0.0561 -0.0847,0.0956 -0.0248,0.0384 -0.0483,0.086 -0.0714,0.1407 l -0.1753,0.423 c -0.0026,0.0081 -0.0067,0.0155 -0.0136,0.0222 -0.0066,0.0074 -0.0159,0.0124 -0.0276,0.017 -0.0112,0.0038 -0.0279,0.007 -0.0489,0.0098 -0.0212,0.0029 -0.0481,0.0036 -0.081,0.0036 -0.028,0 -0.0515,-7e-4 -0.0708,-0.0029 -0.0201,-0.0021 -0.0355,-0.0038 -0.0466,-0.0081 -0.0119,-0.0035 -0.0199,-0.0077 -0.0248,-0.0137 -0.0045,-0.0057 -0.0071,-0.0113 -0.0071,-0.0194 0,-0.0064 0.0014,-0.0163 0.0047,-0.0279 0.0029,-0.0116 0.0086,-0.0268 0.0172,-0.0448 l 0.1805,-0.4135 c 0.0229,-0.0546 0.0477,-0.1019 0.0744,-0.1435 0.0267,-0.0413 0.0546,-0.0766 0.0846,-0.1076 0.0298,-0.0307 0.062,-0.0561 0.0964,-0.0773 0.0349,-0.0215 0.0726,-0.0392 0.1144,-0.0522 V 40.8625 C 38.9992,40.8529 38.97,40.8406 38.9413,40.8254 38.9136,40.8099 38.885,40.7887 38.857,40.7612 38.829,40.7337 38.8016,40.6991 38.7747,40.6586 38.7482,40.6173 38.7222,40.5654 38.6965,40.5062 l -0.151,-0.3627 c -0.0064,-0.0169 -0.0106,-0.0303 -0.0143,-0.0423 -0.0037,-0.012 -0.0057,-0.0233 -0.0057,-0.0346 0,-0.006 0.002,-0.012 0.0061,-0.0169 0.0047,-0.006 0.0119,-0.0106 0.0218,-0.0138 0.0106,-0.0042 0.025,-0.006 0.0444,-0.0081 0.0184,-0.0021 0.0429,-0.0032 0.0713,-0.0032 0.0328,0 0.0603,0.0011 0.0822,0.0032 0.0215,0.0021 0.0398,0.0053 0.0529,0.0095 0.0136,0.0057 0.0236,0.011 0.0303,0.018 0.0064,0.0081 0.011,0.0155 0.0138,0.0258 l 0.1435,0.3788 c 0.0206,0.0526 0.0425,0.0978 0.0647,0.1348 0.0224,0.0378 0.0484,0.0684 0.0772,0.0917 0.0289,0.0244 0.062,0.0413 0.0975,0.0512 0.0358,0.0102 0.0775,0.0159 0.1251,0.0159 h 0.1216 v -0.6887 c 0,-0.006 0.0032,-0.0116 0.0094,-0.0172 0.0062,-0.0053 0.0148,-0.0103 0.0274,-0.0127 0.0116,-0.0039 0.0279,-0.005 0.0474,-0.0071 0.0191,-0.0021 0.0415,-0.0032 0.067,-0.0032 0.0255,0 0.0479,0.0011 0.0667,0.0032 0.0194,0.0021 0.0341,0.0032 0.0463,0.0071 0.0127,0.0024 0.0215,0.0074 0.0274,0.0127 0.0062,0.0056 0.0093,0.0112 0.0093,0.0172 v 0.6887 h 0.1219 c 0.0471,0 0.0889,-0.0057 0.1258,-0.0166 0.0365,-0.011 0.0694,-0.0289 0.0994,-0.0526 0.0296,-0.0229 0.0563,-0.0533 0.0801,-0.0906 0.0236,-0.0371 0.0454,-0.0812 0.0665,-0.1338 l 0.1533,-0.3788 c 0.0039,-0.0103 0.0096,-0.0177 0.015,-0.0258 0.0051,-0.007 0.0137,-0.0123 0.0258,-0.018 0.0112,-0.0042 0.0272,-0.0074 0.047,-0.0095 0.0202,-0.0021 0.0462,-0.0032 0.0791,-0.0032 0.0293,0 0.0536,0.0011 0.0722,0.0032 0.0186,0.0021 0.0332,0.0039 0.0436,0.0081 0.0105,0.0032 0.018,0.0078 0.0217,0.0138 0.0044,0.0049 0.0068,0.0109 0.0068,0.0169 0,0.0113 -0.0019,0.0226 -0.0058,0.0346 -0.0036,0.012 -0.0084,0.0254 -0.0147,0.0423 l -0.1567,0.3627 c -0.0255,0.0592 -0.0519,0.1111 -0.0789,0.1517 -0.0274,0.0409 -0.0548,0.074 -0.0827,0.1009 -0.0281,0.0271 -0.0561,0.0479 -0.0834,0.0631 -0.0273,0.0166 -0.0547,0.0279 -0.0825,0.037 v 0.0036 c 0.0414,0.0144 0.0793,0.0324 0.1135,0.0529 0.035,0.0204 0.0671,0.0469 0.0965,0.0769 0.0298,0.031 0.0579,0.0681 0.0834,0.1097 0.0253,0.0427 0.0501,0.09 0.0746,0.1446 l 0.1784,0.4135 c 0.0036,0.0088 0.0066,0.0166 0.0097,0.0236 0.0033,0.0074 0.0053,0.0138 0.0062,0.0212 0.0014,0.0071 0.0029,0.012 0.0039,0.0159 0.0012,0.0049 0.0019,0.0084 0.0019,0.012 z"
   id="path48" />
  <path
   class="fil6"
   d="m 42.0736,40.9739 h -0.2568 c -0.0826,0 -0.1542,0.0067 -0.2152,0.0205 -0.0599,0.0141 -0.1108,0.0349 -0.1509,0.0617 -0.0398,0.0279 -0.0698,0.0611 -0.0884,0.0985 -0.0184,0.0388 -0.0279,0.0822 -0.0279,0.1316 0,0.0857 0.0266,0.1534 0.0808,0.2039 0.0543,0.0504 0.1301,0.0751 0.227,0.0751 0.0788,0 0.1518,-0.0194 0.2195,-0.0596 0.067,-0.0399 0.1378,-0.1016 0.2119,-0.1845 z m 0.299,0.7486 c 0,0.0142 -0.005,0.0254 -0.015,0.0325 -0.0093,0.0074 -0.0227,0.013 -0.0394,0.0162 -0.0179,0.0043 -0.0426,0.0057 -0.075,0.0057 -0.0318,0 -0.057,-0.0014 -0.0758,-0.0057 C 42.149,41.768 42.1354,41.7624 42.1265,41.755 42.118,41.7479 42.114,41.7367 42.114,41.7225 v -0.1644 c -0.0721,0.0773 -0.1517,0.1366 -0.2399,0.1786 -0.0877,0.0419 -0.181,0.0635 -0.2792,0.0635 -0.0867,0 -0.1647,-0.0103 -0.2345,-0.0336 -0.0694,-0.0229 -0.1292,-0.0546 -0.1783,-0.0973 -0.0492,-0.0431 -0.0876,-0.0949 -0.115,-0.1563 -0.0267,-0.0625 -0.0405,-0.1323 -0.0405,-0.2117 0,-0.0921 0.0188,-0.1718 0.056,-0.2409 0.0379,-0.0674 0.0918,-0.1238 0.1624,-0.1683 0.0701,-0.0459 0.1566,-0.079 0.2586,-0.102 0.1016,-0.0218 0.2168,-0.0335 0.3443,-0.0335 h 0.2257 v -0.1277 c 0,-0.0635 -0.0071,-0.1189 -0.0197,-0.1675 -0.0139,-0.0477 -0.0349,-0.0882 -0.0649,-0.12 -0.0298,-0.0328 -0.0684,-0.0568 -0.1156,-0.0734 -0.0474,-0.0165 -0.1058,-0.025 -0.1747,-0.025 -0.0747,0 -0.1405,0.0095 -0.1996,0.0264 -0.0589,0.0184 -0.1106,0.0374 -0.1547,0.0583 -0.0448,0.0215 -0.0815,0.0412 -0.1114,0.0585 -0.0296,0.0173 -0.0515,0.0261 -0.0665,0.0261 -0.0093,0 -0.0179,-0.0024 -0.0255,-0.0067 -0.0076,-0.0049 -0.0138,-0.0123 -0.0192,-0.0222 -0.0049,-0.0092 -0.0094,-0.0219 -0.0117,-0.0374 -0.0027,-0.0152 -0.0037,-0.0317 -0.0037,-0.0497 0,-0.0304 0.0024,-0.0544 0.0068,-0.0724 0.0042,-0.0169 0.014,-0.0342 0.0309,-0.0501 0.0162,-0.0158 0.0442,-0.0342 0.0849,-0.0553 0.0396,-0.0212 0.0854,-0.0406 0.1378,-0.0586 0.052,-0.0169 0.1094,-0.0314 0.1714,-0.0441 0.0617,-0.0109 0.1244,-0.0169 0.1877,-0.0169 0.1175,0 0.2178,0.0144 0.3005,0.0402 0.0828,0.0271 0.1492,0.066 0.2001,0.1175 0.0512,0.0522 0.0882,0.116 0.1113,0.1926 0.0231,0.0762 0.0348,0.1651 0.0348,0.2674 z"
   id="path49" />
  <path
   class="fil6"
   d="m 44.6777,40.2557 c -0.0432,-0.0053 -0.088,-0.0095 -0.1347,-0.0117 -0.0458,-0.0017 -0.0882,-0.0021 -0.1274,-0.0021 -0.0825,0 -0.1511,0.0064 -0.2066,0.0205 -0.0553,0.0138 -0.0992,0.0339 -0.1328,0.0596 -0.0334,0.0261 -0.0572,0.0575 -0.071,0.0924 -0.0143,0.0353 -0.021,0.0741 -0.021,0.1172 0,0.0434 0.008,0.0822 0.0243,0.1171 0.0169,0.0342 0.0417,0.0635 0.0753,0.0871 0.0327,0.0233 0.0758,0.0424 0.128,0.0543 0.0522,0.0131 0.1248,0.0198 0.2189,0.0198 h 0.247 z m 0.3005,1.4651 c 0,0.0091 -0.0018,0.0176 -0.0059,0.025 -0.0047,0.0071 -0.0121,0.0131 -0.0228,0.0177 -0.0108,0.0038 -0.026,0.007 -0.0458,0.0098 -0.0193,0.0029 -0.0448,0.0036 -0.0766,0.0036 -0.0292,0 -0.0536,-7e-4 -0.0726,-0.0036 -0.0192,-0.0028 -0.0351,-0.006 -0.0468,-0.0098 -0.0112,-0.0046 -0.0193,-0.0106 -0.0234,-0.0177 -0.0038,-0.0074 -0.0066,-0.0159 -0.0066,-0.025 V 41.03 h -0.1724 c -0.0753,0 -0.1345,0.0057 -0.1761,0.0187 -0.0414,0.0117 -0.0797,0.0318 -0.1133,0.0607 -0.0327,0.0289 -0.0634,0.0649 -0.0901,0.1097 -0.0267,0.0441 -0.0518,0.0974 -0.0765,0.163 l -0.1329,0.3203 c -0.0057,0.0159 -0.0124,0.0283 -0.02,0.0385 -0.0066,0.0095 -0.0181,0.0173 -0.0316,0.0226 -0.0137,0.0049 -0.0316,0.0084 -0.053,0.0105 -0.021,0.0022 -0.0477,0.0029 -0.0791,0.0029 -0.0234,0 -0.0432,-7e-4 -0.0613,-0.0014 -0.0174,-0.0015 -0.0322,-0.0043 -0.0441,-0.0071 -0.0124,-0.0025 -0.0217,-0.0074 -0.0274,-0.0138 -0.0062,-0.0074 -0.0093,-0.0151 -0.0093,-0.0254 0,-0.0084 0.0031,-0.0215 0.0098,-0.0412 0.0071,-0.0187 0.0207,-0.0512 0.041,-0.0985 l 0.1311,-0.3079 c 0.0345,-0.0776 0.0761,-0.1443 0.1259,-0.2018 0.0497,-0.0565 0.1068,-0.0977 0.1716,-0.1245 -0.1182,-0.0223 -0.212,-0.0688 -0.2818,-0.1412 -0.0696,-0.0719 -0.1049,-0.1679 -0.1049,-0.2864 0,-0.0794 0.0167,-0.1503 0.0494,-0.2142 0.0328,-0.0642 0.081,-0.1178 0.1444,-0.1619 0.064,-0.0448 0.1424,-0.0783 0.2349,-0.1019 0.0936,-0.024 0.1998,-0.0357 0.3204,-0.0357 0.0285,0 0.0629,7e-4 0.1006,0.0018 0.0386,0.0014 0.0777,0.0028 0.1189,0.0053 0.0403,0.0018 0.0802,0.0053 0.118,0.0088 0.0386,0.0018 0.0716,0.0053 0.0997,0.0074 0.0358,0.0043 0.0634,0.017 0.0818,0.0406 0.0181,0.0226 0.0267,0.0511 0.0267,0.0857 z"
   id="path50" />
  <path
   class="fil6"
   d="m 46.5138,40.1689 c 0,0.0243 -0.0014,0.0445 -0.0042,0.0617 -0.0031,0.017 -0.0074,0.0304 -0.0125,0.042 -0.0054,0.0106 -0.0119,0.0184 -0.0186,0.0237 -0.0062,0.0053 -0.015,0.0067 -0.0241,0.0067 H 45.837 v 1.4178 c 0,0.0091 -0.0028,0.0176 -0.0076,0.0243 -0.0052,0.0064 -0.0131,0.0117 -0.0236,0.0173 -0.0113,0.0049 -0.0263,0.0081 -0.0455,0.0109 -0.0198,0.0029 -0.0448,0.0036 -0.0752,0.0036 -0.0288,0 -0.0529,-7e-4 -0.0727,-0.0036 -0.0195,-0.0028 -0.0347,-0.006 -0.046,-0.0109 -0.0117,-0.0056 -0.0198,-0.0109 -0.0236,-0.0173 -0.0043,-0.0067 -0.0069,-0.0152 -0.0069,-0.0243 v -1.5794 c 0,-0.0367 0.0079,-0.0635 0.0248,-0.0815 0.0162,-0.0169 0.0393,-0.0258 0.0684,-0.0258 h 0.8253 c 0.0091,0 0.0179,0.0022 0.0241,0.0082 0.0067,0.0053 0.0132,0.0141 0.0186,0.0247 0.0052,0.0123 0.0094,0.0261 0.0125,0.0426 0.0028,0.0163 0.0042,0.036 0.0042,0.0593 z"
   id="path51" />
  <path
   class="fil6"
   d="m 47.9917,40.9023 c 0,-0.0882 -0.0087,-0.1721 -0.0249,-0.2508 -0.0162,-0.0794 -0.0435,-0.1478 -0.0808,-0.2081 -0.0379,-0.0593 -0.0889,-0.1062 -0.1528,-0.1411 -0.065,-0.0343 -0.1449,-0.0519 -0.241,-0.0519 -0.0889,0 -0.1645,0.0162 -0.2286,0.0476 -0.0634,0.0314 -0.1163,0.0762 -0.1573,0.1341 -0.0418,0.0578 -0.072,0.1256 -0.0919,0.2049 -0.0198,0.0787 -0.03,0.1644 -0.03,0.2586 0,0.0889 0.0081,0.1743 0.0243,0.253 0.016,0.0793 0.0437,0.1478 0.0823,0.2067 0.0377,0.0586 0.0894,0.1058 0.1535,0.1397 0.0646,0.0356 0.1445,0.0522 0.2403,0.0522 0.0877,0 0.1634,-0.0152 0.2275,-0.0476 0.0648,-0.0318 0.1177,-0.0759 0.1589,-0.133 0.0413,-0.0561 0.072,-0.1245 0.0913,-0.2036 0.0194,-0.079 0.0292,-0.1654 0.0292,-0.2607 z m 0.3165,-0.0201 c 0,0.1341 -0.0174,0.2565 -0.0529,0.369 -0.035,0.1122 -0.0875,0.2099 -0.1575,0.2907 -0.0697,0.0819 -0.1571,0.145 -0.2621,0.1905 -0.1053,0.0455 -0.2271,0.0678 -0.3651,0.0678 -0.1348,0 -0.2525,-0.0198 -0.3526,-0.0593 -0.0998,-0.0402 -0.1839,-0.0988 -0.2504,-0.1757 -0.0665,-0.0758 -0.1161,-0.169 -0.1492,-0.279 -0.0331,-0.1087 -0.0493,-0.2325 -0.0493,-0.3708 0,-0.1337 0.0175,-0.2568 0.0517,-0.3687 0.035,-0.1129 0.087,-0.2095 0.1568,-0.291 0.0696,-0.0811 0.1573,-0.1443 0.2618,-0.1891 0.1044,-0.0452 0.2262,-0.0677 0.3654,-0.0677 0.1348,0 0.2523,0.0204 0.3524,0.0606 0.1001,0.0396 0.1843,0.0978 0.2508,0.1747 0.067,0.0765 0.1168,0.1693 0.1504,0.2783 0.0334,0.1097 0.0497,0.2325 0.0497,0.3697 z"
   id="path52" />
  <path
   class="fil6"
   d="m 49.7965,40.2818 h -0.5192 c -0.0253,0.1983 -0.0522,0.3644 -0.0796,0.5006 -0.0267,0.1358 -0.0558,0.2505 -0.0872,0.3443 -0.0306,0.0935 -0.0635,0.1697 -0.0975,0.2286 -0.0339,0.0586 -0.069,0.1111 -0.1056,0.1552 h 0.8891 z m -1.1311,2.0345 c 0,0.0084 -0.0017,0.0155 -0.0053,0.0201 -0.0038,0.0063 -0.0109,0.0109 -0.0212,0.0141 -0.0105,0.0032 -0.0236,0.0067 -0.0393,0.0088 -0.0155,0.0028 -0.0355,0.0046 -0.0587,0.0046 -0.0252,0 -0.0457,-0.0018 -0.0625,-0.0046 -0.0159,-0.0021 -0.0298,-0.0056 -0.0397,-0.0088 -0.0106,-0.0032 -0.0181,-0.0078 -0.0217,-0.0141 -0.0046,-0.0046 -0.0069,-0.0117 -0.0069,-0.0201 l 1e-4,-0.7306 c 0,-0.0311 0.0048,-0.0505 0.0149,-0.0607 0.0093,-0.0088 0.0284,-0.0145 0.0564,-0.0145 h 0.1162 c 0.0448,-0.0543 0.0872,-0.1167 0.1256,-0.1866 0.0391,-0.0709 0.0753,-0.1587 0.1089,-0.2656 0.0329,-0.1062 0.064,-0.2343 0.0919,-0.3832 0.0276,-0.1495 0.0529,-0.328 0.0767,-0.5355 0.0024,-0.0176 0.0054,-0.0328 0.0098,-0.0465 0.0043,-0.0138 0.01,-0.0251 0.0179,-0.0332 0.0083,-0.0078 0.0178,-0.0145 0.0281,-0.0183 0.0112,-0.0053 0.0241,-0.0075 0.0386,-0.0075 h 0.9111 c 0.0289,0 0.0514,0.0089 0.0678,0.0258 0.0164,0.018 0.0246,0.0448 0.0246,0.0815 l 10e-5,1.3691 h 0.2273 c 0.0253,0 0.0443,0.0057 0.0548,0.0145 0.0112,0.0102 0.0165,0.0296 0.0165,0.0607 l 1e-4,0.7306 c 0,0.0084 -0.0018,0.0155 -0.0054,0.0201 -0.0038,0.0063 -0.0107,0.0109 -0.0214,0.0141 -0.0096,0.0032 -0.0236,0.0067 -0.0408,0.0088 -0.0167,0.0028 -0.0365,0.0046 -0.0596,0.0046 -0.0245,0 -0.0446,-0.0018 -0.0604,-0.0046 -0.0157,-0.0021 -0.0288,-0.0056 -0.0395,-0.0088 -0.0103,-0.0032 -0.0174,-0.0078 -0.0214,-0.0141 -0.0048,-0.0046 -0.0063,-0.0117 -0.0063,-0.0201 v -0.5504 h -1.4773 z"
   id="path53" />
  <path
   class="fil6"
   d="m 51.2829,41.5056 c 0,0.0377 -0.0018,0.072 -0.0056,0.1033 -0.0034,0.0318 -0.0091,0.0618 -0.0179,0.09 -0.0086,0.0275 -0.0198,0.0557 -0.0336,0.0829 -0.0145,0.0265 -0.0317,0.0557 -0.0522,0.0857 l -0.2492,0.3761 c -0.0062,0.0078 -0.0131,0.0152 -0.0214,0.0219 -0.0081,0.0056 -0.017,0.0109 -0.0291,0.0158 -0.011,0.005 -0.0248,0.0082 -0.04,0.0099 -0.0155,0.0018 -0.0341,0.0032 -0.0579,0.0032 -0.0201,0 -0.0375,-0.0014 -0.0516,-0.0032 -0.0133,-0.0017 -0.0238,-0.0049 -0.0296,-0.0084 -0.0064,-0.0043 -0.0099,-0.011 -0.0099,-0.0173 -7e-4,-0.0081 0.0014,-0.0166 0.006,-0.0261 l 0.2419,-0.501 v -0.2328 c 0,-0.0328 0.0036,-0.0589 0.0107,-0.0783 0.0064,-0.0194 0.0165,-0.0346 0.0317,-0.0438 0.0143,-0.0102 0.0327,-0.0169 0.0546,-0.0201 0.0217,-0.0035 0.0487,-0.0053 0.0802,-0.0053 0.03,0 0.056,0.0018 0.0786,0.0053 0.0214,0.0032 0.0394,0.0099 0.0534,0.0201 0.014,0.0092 0.0241,0.0244 0.0308,0.0438 0.0071,0.0194 0.01,0.0455 0.0101,0.0783 z"
   id="path54" />
  <path
   class="fil6"
   d="m 53.6374,40.1689 c 0,0.0243 -0.0011,0.0445 -0.0046,0.0617 -0.0032,0.017 -0.0078,0.0304 -0.0124,0.042 -0.0056,0.0106 -0.0116,0.0184 -0.0186,0.0237 -0.006,0.0053 -0.0149,0.0067 -0.024,0.0067 h -0.6177 v 1.4178 c 0,0.0091 -0.0022,0.0176 -0.0071,0.0243 -0.0049,0.0064 -0.0131,0.0117 -0.024,0.0173 -0.0109,0.0049 -0.0261,0.0081 -0.0452,0.0109 -0.02,0.0029 -0.0444,0.0036 -0.0751,0.0036 -0.0286,0 -0.0529,-7e-4 -0.0727,-0.0036 -0.0194,-0.0028 -0.0352,-0.006 -0.0462,-0.0109 -0.012,-0.0056 -0.0201,-0.0109 -0.0233,-0.0173 -0.0049,-0.0067 -0.007,-0.0152 -0.007,-0.0243 v -1.5794 c 0,-0.0367 0.0077,-0.0635 0.0247,-0.0815 0.0162,-0.0169 0.0391,-0.0258 0.0684,-0.0258 h 0.8252 c 0.0091,0 0.018,0.0022 0.024,0.0082 0.007,0.0053 0.013,0.0141 0.0186,0.0247 0.0046,0.0123 0.0092,0.0261 0.0124,0.0426 0.0035,0.0163 0.0046,0.036 0.0046,0.0593 z"
   id="path55" />
  <path
   class="fil6"
   d="m 55.1402,40.9094 c 0,-0.0833 -0.006,-0.1644 -0.019,-0.2424 -0.0127,-0.079 -0.035,-0.1481 -0.0657,-0.2092 -0.0314,-0.0599 -0.073,-0.1086 -0.1248,-0.1453 -0.0526,-0.0363 -0.1175,-0.055 -0.1944,-0.055 -0.0399,0 -0.0776,0.006 -0.1154,0.0179 -0.0374,0.0117 -0.0762,0.0297 -0.1146,0.0547 -0.0388,0.0251 -0.0794,0.0572 -0.1224,0.0981 -0.0424,0.0406 -0.0868,0.0907 -0.1341,0.1503 v 0.6519 c 0.0819,0.1009 0.1605,0.1778 0.2346,0.2314 0.0744,0.0537 0.152,0.0801 0.2335,0.0801 0.0748,0 0.1397,-0.0183 0.1937,-0.0547 0.054,-0.0367 0.0977,-0.085 0.1316,-0.1457 0.0325,-0.0606 0.0579,-0.1291 0.073,-0.2035 0.0163,-0.0755 0.024,-0.1514 0.024,-0.2286 z m 0.3168,-0.0342 c 0,0.1439 -0.0159,0.272 -0.0469,0.3859 -0.0303,0.114 -0.0759,0.2117 -0.1358,0.291 -0.0603,0.0798 -0.1348,0.1405 -0.223,0.1842 -0.0892,0.0423 -0.1905,0.0639 -0.3048,0.0639 -0.0487,0 -0.0935,-0.0043 -0.134,-0.0145 -0.042,-0.0095 -0.0822,-0.0247 -0.1214,-0.0448 -0.0398,-0.0212 -0.079,-0.0469 -0.1178,-0.0787 -0.0388,-0.0317 -0.0801,-0.0684 -0.1235,-0.1115 v 0.8199 c 0,0.0095 -0.0025,0.0176 -0.0074,0.0257 -0.0049,0.0064 -0.0134,0.0127 -0.024,0.0184 -0.0109,0.0046 -0.0257,0.0088 -0.0452,0.0106 -0.02,0.0024 -0.0444,0.0035 -0.0751,0.0035 -0.0286,0 -0.0533,-0.0011 -0.0727,-0.0035 -0.0194,-0.0018 -0.0352,-0.006 -0.0462,-0.0106 -0.0116,-0.0057 -0.0197,-0.012 -0.0236,-0.0184 -0.0042,-0.0081 -0.0067,-0.0162 -0.0067,-0.0257 v -2.2895 c 0,-0.0113 0.0017,-0.0198 0.0056,-0.0265 0.0036,-0.0063 0.011,-0.0116 0.0215,-0.0173 0.0113,-0.0042 0.0251,-0.0074 0.0424,-0.0095 0.0166,-0.0021 0.0377,-0.0032 0.0617,-0.0032 0.0254,0 0.0466,0.0011 0.0628,0.0032 0.0166,0.0021 0.0303,0.0053 0.0409,0.0095 0.011,0.0057 0.0187,0.011 0.023,0.0173 0.0042,0.0067 0.006,0.0152 0.006,0.0265 v 0.2205 c 0.0497,-0.0512 0.0977,-0.0953 0.1446,-0.1327 0.0462,-0.0381 0.0921,-0.0691 0.139,-0.0942 0.0469,-0.0243 0.0949,-0.0444 0.1439,-0.0561 0.0487,-0.013 0.1009,-0.0197 0.156,-0.0197 0.1185,0 0.2197,0.0229 0.3037,0.0698 0.084,0.0459 0.152,0.1087 0.2046,0.1888 0.0529,0.0804 0.0914,0.1735 0.1157,0.2797 0.0251,0.1062 0.0367,0.2194 0.0367,0.338 z"
   id="path56" />
  <path
   class="fil6"
   d="m 57.3677,41.7225 c 0,0.0082 -0.0029,0.0159 -0.0078,0.0233 -0.0046,0.0071 -0.012,0.0131 -0.0233,0.0177 -0.0106,0.0038 -0.0261,0.007 -0.0459,0.0098 -0.019,0.0029 -0.0433,0.0036 -0.073,0.0036 -0.0282,0 -0.0525,-7e-4 -0.0719,-0.0036 -0.0201,-0.0028 -0.0353,-0.006 -0.048,-0.0098 -0.012,-0.0046 -0.0208,-0.0106 -0.0254,-0.0177 -0.0042,-0.0074 -0.0067,-0.0151 -0.0067,-0.0233 v -0.944 c 0,-0.0473 10e-4,-0.0956 0.0031,-0.1446 0.0025,-0.0491 0.0053,-0.0978 0.0089,-0.1447 -0.0279,0.048 -0.0582,0.096 -0.0921,0.1429 -0.0335,0.0462 -0.067,0.0931 -0.1002,0.139 l -0.6964,0.9514 c -0.0084,0.0096 -0.0159,0.0184 -0.0226,0.0254 -0.007,0.0071 -0.0155,0.0131 -0.0257,0.0177 -0.0106,0.0035 -0.0233,0.0063 -0.0392,0.0084 -0.0158,0.0022 -0.0356,0.0029 -0.0585,0.0029 -0.0265,0 -0.0484,-7e-4 -0.0653,-0.0036 -0.0173,-0.0028 -0.0307,-0.006 -0.0406,-0.0098 -0.0105,-0.0046 -0.018,-0.0106 -0.0215,-0.0177 -0.0049,-0.0074 -0.0074,-0.0151 -0.0074,-0.0233 v -1.6432 c 0,-0.0088 0.0025,-0.0159 0.0074,-0.024 0.0036,-0.007 0.0117,-0.0123 0.0226,-0.018 0.0117,-0.0042 0.0275,-0.0074 0.0466,-0.0095 0.0201,-0.0021 0.0437,-0.0032 0.0712,-0.0032 0.0579,0 0.0985,0.0053 0.1207,0.0134 0.0219,0.0096 0.0324,0.0233 0.0324,0.0413 v 0.9483 c 0,0.0483 -7e-4,0.0952 -0.0039,0.1418 -0.0024,0.0469 -0.0056,0.0931 -0.0088,0.14 0.0279,-0.0469 0.0558,-0.0917 0.0843,-0.1365 0.0283,-0.0441 0.06,-0.0875 0.0921,-0.1302 l 0.7049,-0.9634 c 0.0077,-0.0102 0.0151,-0.018 0.0233,-0.0257 0.0074,-0.0075 0.0172,-0.0131 0.0292,-0.0173 0.0113,-0.0046 0.0247,-0.0064 0.041,-0.0085 0.0158,-0.0021 0.0359,-0.0032 0.0613,-0.0032 0.0258,0 0.0473,0.0011 0.0649,0.0032 0.017,0.0021 0.0318,0.0053 0.0424,0.0095 0.0095,0.0057 0.0173,0.011 0.0215,0.018 0.0042,0.0081 0.0064,0.0155 0.0064,0.0258 z"
   id="path57" />
  <path
   class="fil6"
   d="m 59.1407,40.9009 c 0,-0.0804 -0.0067,-0.1573 -0.0215,-0.23 -0.0159,-0.0723 -0.0406,-0.1365 -0.0737,-0.1923 -0.0332,-0.055 -0.0784,-0.0991 -0.1344,-0.1326 -0.0561,-0.0332 -0.126,-0.0497 -0.2089,-0.0497 -0.0511,0 -0.0977,0.006 -0.1429,0.0187 -0.0437,0.0127 -0.0875,0.0321 -0.1301,0.0585 -0.0427,0.0258 -0.0851,0.0586 -0.1274,0.0967 -0.043,0.0381 -0.0882,0.0832 -0.1365,0.1354 -0.0011,0.0191 -0.0018,0.0417 -0.0018,0.0674 0,0.0258 0,0.0522 0,0.0783 0,0.1309 0.0074,0.247 0.0244,0.3465 0.0162,0.0995 0.0434,0.1827 0.0811,0.2487 0.0381,0.0674 0.0875,0.1178 0.1492,0.1517 0.0621,0.0342 0.138,0.0515 0.2276,0.0515 0.0786,0 0.1499,-0.0159 0.2113,-0.0469 0.0621,-0.0307 0.1139,-0.0745 0.1563,-0.1302 0.0412,-0.0561 0.0733,-0.1238 0.0952,-0.2043 0.0219,-0.0804 0.0321,-0.1693 0.0321,-0.2674 z m 0.3119,-0.0257 c 0,0.1368 -0.0191,0.2628 -0.0568,0.3753 -0.0371,0.1129 -0.0914,0.2106 -0.1634,0.2918 -0.0709,0.0822 -0.1591,0.1457 -0.2614,0.1905 -0.103,0.0451 -0.2187,0.0674 -0.3471,0.0674 -0.1337,0 -0.2494,-0.0216 -0.3468,-0.0639 -0.098,-0.0437 -0.1785,-0.1083 -0.2427,-0.1958 -0.0631,-0.0857 -0.1104,-0.1944 -0.1411,-0.3256 -0.0296,-0.1309 -0.0452,-0.2836 -0.0452,-0.4593 0,-0.15 0.0071,-0.2872 0.0216,-0.4131 0.0127,-0.1263 0.0331,-0.2382 0.0589,-0.3383 0.025,-0.1006 0.0557,-0.186 0.0906,-0.2565 0.0353,-0.0699 0.0716,-0.1256 0.109,-0.1672 0.0364,-0.0417 0.0731,-0.0741 0.1091,-0.0995 0.0356,-0.0247 0.0747,-0.0476 0.1192,-0.0688 0.043,-0.0222 0.0928,-0.0399 0.1478,-0.0557 0.0561,-0.0159 0.1175,-0.03 0.1873,-0.0417 l 0.5846,-0.097 c 0.0201,-0.0032 0.0374,-0.0053 0.0504,-0.0046 0.0145,4e-4 0.024,0.006 0.0314,0.0145 0.0074,0.0092 0.0117,0.0243 0.0145,0.0441 0.0021,0.0212 0.0035,0.0497 0.0035,0.0864 0,0.0237 -0.0014,0.0448 -0.0035,0.0621 -0.0028,0.0166 -0.0067,0.0304 -0.0124,0.042 -0.0063,0.0106 -0.0158,0.0187 -0.0271,0.025 -0.0127,0.0064 -0.0282,0.0117 -0.048,0.0145 l -0.5447,0.0914 c -0.0543,0.0088 -0.1019,0.0176 -0.1439,0.0289 -0.0409,0.0109 -0.0776,0.0233 -0.1094,0.036 -0.0324,0.0134 -0.0607,0.0293 -0.0854,0.0448 -0.0239,0.0159 -0.0479,0.0377 -0.0726,0.0631 -0.0237,0.0254 -0.0462,0.0572 -0.066,0.0946 -0.0208,0.0381 -0.0377,0.0801 -0.0511,0.1287 -0.0145,0.0477 -0.0258,0.0999 -0.035,0.1563 -0.0091,0.0561 -0.018,0.1168 -0.0261,0.1821 0.0399,-0.0431 0.0826,-0.0815 0.1274,-0.1158 0.0451,-0.0352 0.092,-0.0645 0.1418,-0.0892 0.0497,-0.0243 0.1026,-0.0423 0.1577,-0.0557 0.055,-0.0124 0.1139,-0.0187 0.1753,-0.0187 0.1182,0 0.2208,0.0197 0.3087,0.0599 0.0878,0.0392 0.1612,0.0946 0.2187,0.168 0.0579,0.073 0.1013,0.1605 0.1295,0.2614 0.0289,0.1023 0.0427,0.2152 0.0427,0.3376 z"
   id="path58" />
  <path
   class="fil6"
   d="m 61.1195,40.9023 c 0,-0.0882 -0.0089,-0.1721 -0.0251,-0.2508 -0.0162,-0.0794 -0.0434,-0.1478 -0.0808,-0.2081 -0.0377,-0.0593 -0.0889,-0.1062 -0.1531,-0.1411 -0.0645,-0.0343 -0.1446,-0.0519 -0.2402,-0.0519 -0.0893,0 -0.1648,0.0162 -0.229,0.0476 -0.0631,0.0314 -0.1164,0.0762 -0.157,0.1341 -0.0416,0.0578 -0.0726,0.1256 -0.092,0.2049 -0.0198,0.0787 -0.0304,0.1644 -0.0304,0.2586 0,0.0889 0.0081,0.1743 0.0251,0.253 0.0162,0.0793 0.043,0.1478 0.0818,0.2067 0.0377,0.0586 0.0896,0.1058 0.1531,0.1397 0.0646,0.0356 0.1454,0.0522 0.2406,0.0522 0.0882,0 0.1637,-0.0152 0.2272,-0.0476 0.0653,-0.0318 0.1178,-0.0759 0.1594,-0.133 0.0413,-0.0561 0.072,-0.1245 0.0911,-0.2036 0.0197,-0.079 0.0292,-0.1654 0.0293,-0.2607 z m 0.316,-0.0201 c 0,0.1341 -0.0169,0.2565 -0.0522,0.369 -0.0349,0.1122 -0.0878,0.2099 -0.1577,0.2907 -0.0695,0.0819 -0.157,0.145 -0.2621,0.1905 -0.1051,0.0455 -0.2268,0.0678 -0.3655,0.0678 -0.1344,0 -0.2522,-0.0198 -0.3524,-0.0593 -0.0998,-0.0402 -0.1838,-0.0988 -0.2498,-0.1757 -0.067,-0.0758 -0.1164,-0.169 -0.1495,-0.279 -0.0332,-0.1087 -0.0494,-0.2325 -0.0494,-0.3708 0,-0.1337 0.0173,-0.2568 0.0518,-0.3687 0.035,-0.1129 0.0868,-0.2095 0.1563,-0.291 0.0699,-0.0811 0.1574,-0.1443 0.2621,-0.1891 0.1041,-0.0452 0.2265,-0.0677 0.3659,-0.0677 0.1344,0 0.2518,0.0204 0.3524,0.0606 0.0995,0.0396 0.1834,0.0978 0.2505,0.1747 0.067,0.0765 0.1167,0.1693 0.1502,0.2783 0.0339,0.1097 0.0494,0.2325 0.0494,0.3697 z"
   id="path59" />
  <path
   class="fil6"
   d="m 62.9169,41.2541 c 0,-0.0484 -0.0085,-0.0911 -0.0255,-0.1288 -0.0165,-0.0363 -0.0444,-0.0674 -0.0814,-0.091 -0.0367,-0.0254 -0.084,-0.0427 -0.1422,-0.0554 -0.0575,-0.0117 -0.1256,-0.018 -0.2043,-0.018 H 62.17 v 0.581 c 0.023,0.0039 0.0473,0.0064 0.0723,0.0081 0.0244,0.0021 0.0501,0.0039 0.0766,0.0057 0.0258,0.0021 0.0515,0.0032 0.0783,0.0046 0.0258,0.001 0.0501,0.0021 0.0716,0.0021 0.0787,0 0.1468,-0.0078 0.2025,-0.0219 0.0561,-0.0134 0.102,-0.0342 0.1387,-0.0607 0.037,-0.0264 0.0649,-0.0592 0.0814,-0.0973 0.017,-0.0381 0.0254,-0.0812 0.0255,-0.1284 z m -0.0554,-0.767 c 0,-0.0399 -0.0067,-0.0762 -0.0212,-0.1076 -0.0145,-0.0314 -0.0385,-0.0575 -0.072,-0.0797 -0.0331,-0.0219 -0.0765,-0.0388 -0.1298,-0.0494 -0.0522,-0.0106 -0.1168,-0.0162 -0.1912,-0.0162 -0.0571,0 -0.109,0.0024 -0.157,0.0042 -0.0469,0.0035 -0.0868,0.0067 -0.1203,0.0106 v 0.5098 h 0.3059 c 0.1252,0 0.2212,-0.0237 0.2871,-0.0706 0.066,-0.0462 0.0985,-0.1132 0.0985,-0.2011 z m 0.363,0.7617 c 0,0.086 -0.0163,0.1626 -0.0487,0.2303 -0.0335,0.0674 -0.0819,0.1238 -0.1461,0.1694 -0.0645,0.0455 -0.145,0.0793 -0.2402,0.1037 -0.0959,0.024 -0.2078,0.0353 -0.3351,0.0353 -0.0399,0 -0.0791,0 -0.1161,-8e-4 -0.0381,-7e-4 -0.0751,-0.0014 -0.1101,-0.0031 C 62.193,41.7818 62.1587,41.7786 62.1238,41.7769 62.0892,41.7748 62.0543,41.7712 62.0208,41.768 61.9725,41.7617 61.9361,41.7458 61.9135,41.7194 61.8903,41.6933 61.879,41.6548 61.879,41.604 v -1.4115 c 0,-0.0504 0.0109,-0.0882 0.0328,-0.1146 0.0233,-0.0272 0.0571,-0.0427 0.1033,-0.0476 0.0318,-0.0039 0.0653,-0.0074 0.102,-0.0092 0.0349,-0.0025 0.072,-0.0053 0.1094,-0.0064 0.0374,-0.0014 0.0769,-0.0035 0.1164,-0.0042 0.0402,-0.0014 0.0811,-0.0021 0.1227,-0.0021 0.1175,0 0.2191,0.0095 0.3056,0.0289 0.086,0.0194 0.1573,0.048 0.2148,0.0854 0.0572,0.0381 0.0991,0.0843 0.127,0.1383 0.0272,0.055 0.0406,0.1182 0.0406,0.188 0,0.0921 -0.0244,0.1711 -0.0741,0.2371 -0.0487,0.0652 -0.1214,0.1118 -0.218,0.14 0.1213,0.0254 0.2113,0.0748 0.272,0.1478 0.0603,0.0727 0.091,0.1644 0.091,0.2749 z"
   id="path60" />
  <path
   class="fil6"
   d="m 65.9677,41.7225 c 0,0.0082 -0.0025,0.0159 -0.0074,0.0233 -0.0053,0.0071 -0.0124,0.0131 -0.024,0.0177 -0.0102,0.0038 -0.0254,0.007 -0.0455,0.0098 -0.0191,0.0029 -0.0434,0.0036 -0.0727,0.0036 -0.0289,0 -0.0533,-7e-4 -0.0727,-0.0036 -0.0201,-0.0028 -0.0353,-0.006 -0.0476,-0.0098 -0.0116,-0.0046 -0.0208,-0.0106 -0.0258,-0.0177 -0.0042,-0.0074 -0.0063,-0.0151 -0.0063,-0.0233 v -0.944 c 0,-0.0473 7e-4,-0.0956 0.0028,-0.1446 0.0025,-0.0491 0.0053,-0.0978 0.0092,-0.1447 -0.0275,0.048 -0.0582,0.096 -0.0917,0.1429 -0.0336,0.0462 -0.0678,0.0931 -0.1013,0.139 l -0.6964,0.9514 c -0.0081,0.0096 -0.0151,0.0184 -0.0222,0.0254 -0.0067,0.0071 -0.0159,0.0131 -0.0254,0.0177 -0.0099,0.0035 -0.0229,0.0063 -0.0388,0.0084 -0.0162,0.0022 -0.0356,0.0029 -0.0582,0.0029 -0.0268,0 -0.0494,-7e-4 -0.066,-0.0036 -0.0172,-0.0028 -0.031,-0.006 -0.0409,-0.0098 -0.0102,-0.0046 -0.018,-0.0106 -0.0222,-0.0177 -0.0036,-0.0074 -0.0057,-0.0151 -0.0057,-0.0233 v -1.6432 c 0,-0.0088 0.0021,-0.0159 0.0057,-0.024 0.0042,-0.007 0.0127,-0.0123 0.0247,-0.018 0.0109,-0.0042 0.0261,-0.0074 0.0458,-0.0095 0.0194,-0.0021 0.0434,-0.0032 0.0713,-0.0032 0.0582,0 0.0981,0.0053 0.1199,0.0134 0.0219,0.0096 0.0328,0.0233 0.0328,0.0413 l 1e-4,0.9483 c 0,0.0483 -0.0011,0.0952 -0.0036,0.1418 -0.0024,0.0469 -0.0056,0.0931 -0.0095,0.14 0.0275,-0.0469 0.0561,-0.0917 0.0843,-0.1365 0.0289,-0.0441 0.0603,-0.0875 0.0928,-0.1302 l 0.7045,-0.9634 c 0.0078,-0.0102 0.0152,-0.018 0.0233,-0.0257 0.0074,-0.0075 0.0169,-0.0131 0.0293,-0.0173 0.0105,-0.0046 0.0243,-0.0064 0.0409,-0.0085 0.0152,-0.0021 0.036,-0.0032 0.0614,-0.0032 0.0257,0 0.0476,0.0011 0.0642,0.0032 0.018,0.0021 0.0321,0.0053 0.0426,0.0095 0.0103,0.0057 0.0177,0.011 0.0219,0.018 0.0046,0.0081 0.0064,0.0155 0.0064,0.0258 z"
   id="path61" />
  <path
   class="fil6"
   d="m 68.5151,40.1703 c 0,0.0247 -0.0011,0.0452 -0.0036,0.0614 -0.0027,0.0176 -0.0059,0.0318 -0.0123,0.043 -0.0053,0.0106 -0.0116,0.018 -0.0187,0.024 -0.0074,0.0057 -0.0162,0.0081 -0.0272,0.0081 h -0.4924 v 1.414 c 0,0.0091 -0.0025,0.0176 -0.0064,0.0243 -0.0049,0.0064 -0.0134,0.0117 -0.0236,0.0173 -0.0117,0.0049 -0.0261,0.0081 -0.0459,0.0109 -0.019,0.0029 -0.0441,0.0036 -0.0748,0.0036 -0.0296,0 -0.0536,-7e-4 -0.073,-0.0036 -0.0187,-0.0028 -0.0346,-0.006 -0.0462,-0.0109 -0.0113,-0.0056 -0.0191,-0.0109 -0.0236,-0.0173 -0.0046,-0.0067 -0.0067,-0.0152 -0.0067,-0.0243 v -1.414 h -0.4915 c -0.0098,0 -0.019,-0.0024 -0.0264,-0.0081 -0.0078,-0.006 -0.0141,-0.0134 -0.0194,-0.024 -0.0046,-0.0112 -0.0081,-0.0257 -0.0113,-0.043 -0.0032,-0.0183 -0.005,-0.0385 -0.005,-0.0628 1e-4,-0.0226 0.0018,-0.0423 0.005,-0.0582 0.0032,-0.0169 0.0067,-0.0314 0.0127,-0.0437 0.0056,-0.0106 0.0109,-0.0194 0.019,-0.0247 0.0075,-0.006 0.0156,-0.0082 0.0254,-0.0082 h 1.2842 c 0.0091,0 0.0179,0.0022 0.0264,0.0082 0.0078,0.0053 0.0141,0.0141 0.0194,0.0247 0.0043,0.0123 0.0081,0.0268 0.0116,0.0437 0.0032,0.0183 0.0043,0.0381 0.0043,0.0596 z"
   id="path62" />
  <path
   class="fil6"
   d="m 70.0028,40.9094 c 0,-0.0833 -0.0064,-0.1644 -0.0191,-0.2424 -0.0123,-0.079 -0.0339,-0.1481 -0.0653,-0.2092 -0.031,-0.0599 -0.0726,-0.1086 -0.1252,-0.1453 -0.0518,-0.0363 -0.1164,-0.055 -0.1937,-0.055 -0.0398,0 -0.0779,0.006 -0.1157,0.0179 -0.0377,0.0117 -0.0755,0.0297 -0.1143,0.0547 -0.0391,0.0251 -0.0794,0.0572 -0.1221,0.0981 -0.043,0.0406 -0.0874,0.0907 -0.1347,0.1503 v 0.6519 c 0.0822,0.1009 0.1605,0.1778 0.2349,0.2314 0.0741,0.0537 0.1521,0.0801 0.2336,0.0801 0.0748,0 0.1393,-0.0183 0.1937,-0.0547 0.0536,-0.0367 0.098,-0.085 0.1315,-0.1457 0.0325,-0.0606 0.0575,-0.1291 0.0734,-0.2035 0.0156,-0.0755 0.0229,-0.1514 0.023,-0.2286 z m 0.3171,-0.0342 c 0,0.1439 -0.0155,0.272 -0.0469,0.3859 -0.0303,0.114 -0.0762,0.2117 -0.1359,0.291 -0.0602,0.0798 -0.1347,0.1405 -0.2233,0.1842 -0.0888,0.0423 -0.1897,0.0639 -0.3051,0.0639 -0.048,0 -0.0924,-0.0043 -0.1337,-0.0145 -0.0416,-0.0095 -0.0822,-0.0247 -0.121,-0.0448 -0.0399,-0.0212 -0.079,-0.0469 -0.1182,-0.0787 -0.0385,-0.0317 -0.0794,-0.0684 -0.1231,-0.1115 v 0.8199 c 0,0.0095 -0.0028,0.0176 -0.0078,0.0257 -0.0045,0.0064 -0.0127,0.0127 -0.0233,0.0184 -0.0109,0.0046 -0.0257,0.0088 -0.0455,0.0106 -0.0197,0.0024 -0.0451,0.0035 -0.0755,0.0035 -0.0285,0 -0.0522,-0.0011 -0.0723,-0.0035 -0.0194,-0.0018 -0.0346,-0.006 -0.0458,-0.0106 -0.012,-0.0057 -0.0205,-0.012 -0.0237,-0.0184 -0.0045,-0.0081 -0.007,-0.0162 -0.007,-0.0257 v -2.2895 c 0,-0.0113 0.0017,-0.0198 0.0056,-0.0265 0.0039,-0.0063 0.0109,-0.0116 0.0219,-0.0173 0.0109,-0.0042 0.0247,-0.0074 0.042,-0.0095 0.0169,-0.0021 0.0377,-0.0032 0.0613,-0.0032 0.0258,0 0.047,0.0011 0.0628,0.0032 0.017,0.0021 0.0307,0.0053 0.0413,0.0095 0.0106,0.0057 0.0187,0.011 0.0229,0.0173 0.0043,0.0067 0.0064,0.0152 0.0064,0.0265 v 0.2205 c 0.0491,-0.0512 0.0974,-0.0953 0.1436,-0.1327 0.0462,-0.0381 0.0924,-0.0691 0.1397,-0.0942 0.0473,-0.0243 0.0945,-0.0444 0.1439,-0.0561 0.0491,-0.013 0.1013,-0.0197 0.1559,-0.0197 0.1189,0 0.2205,0.0229 0.3041,0.0698 0.0833,0.0459 0.1514,0.1087 0.2046,0.1888 0.0526,0.0804 0.0911,0.1735 0.1158,0.2797 0.0247,0.1062 0.0363,0.2194 0.0363,0.338 z"
   id="path63" />
  <path
   class="fil6"
   d="m 71.7077,40.9739 h -0.2564 c -0.0829,0 -0.1549,0.0067 -0.2152,0.0205 -0.0611,0.0141 -0.1108,0.0349 -0.151,0.0617 -0.0409,0.0279 -0.0702,0.0611 -0.0886,0.0985 -0.0187,0.0388 -0.0282,0.0822 -0.0282,0.1316 0,0.0857 0.0275,0.1534 0.0808,0.2039 0.054,0.0504 0.1298,0.0751 0.2268,0.0751 0.0794,0 0.1521,-0.0194 0.2198,-0.0596 0.067,-0.0399 0.1376,-0.1016 0.212,-0.1845 z m 0.2992,0.7486 c 0,0.0142 -0.0057,0.0254 -0.0148,0.0325 -0.0095,0.0074 -0.0237,0.013 -0.0399,0.0162 -0.0176,0.0043 -0.0423,0.0057 -0.0744,0.0057 -0.0318,0 -0.0579,-0.0014 -0.0759,-0.0057 -0.019,-0.0032 -0.0328,-0.0088 -0.0416,-0.0162 -0.0088,-0.0071 -0.0124,-0.0183 -0.0124,-0.0325 l 1e-4,-0.1644 c -0.0724,0.0773 -0.1518,0.1366 -0.2396,0.1786 -0.0878,0.0419 -0.181,0.0635 -0.2798,0.0635 -0.086,0 -0.1644,-0.0103 -0.2342,-0.0336 -0.0698,-0.0229 -0.1291,-0.0546 -0.1785,-0.0973 -0.0487,-0.0431 -0.0871,-0.0949 -0.1143,-0.1563 -0.0275,-0.0625 -0.0413,-0.1323 -0.0413,-0.2117 0,-0.0921 0.0187,-0.1718 0.0565,-0.2409 0.0377,-0.0674 0.0913,-0.1238 0.1619,-0.1683 0.0706,-0.0459 0.157,-0.079 0.2589,-0.102 0.1024,-0.0218 0.217,-0.0335 0.3443,-0.0335 h 0.2258 v -0.1277 c 0,-0.0635 -0.0067,-0.1189 -0.0201,-0.1675 -0.0134,-0.0477 -0.0346,-0.0882 -0.0646,-0.12 -0.0292,-0.0328 -0.068,-0.0568 -0.1157,-0.0734 -0.0476,-0.0165 -0.1061,-0.025 -0.1742,-0.025 -0.0748,0 -0.1411,0.0095 -0.2001,0.0264 -0.0588,0.0184 -0.11,0.0374 -0.1548,0.0583 -0.0448,0.0215 -0.0815,0.0412 -0.1115,0.0585 -0.03,0.0173 -0.0512,0.0261 -0.0656,0.0261 -0.0102,0 -0.0184,-0.0024 -0.0261,-0.0067 C 70.7676,40.4007 70.7616,40.3933 70.7556,40.3834 70.751,40.3742 70.7464,40.3615 70.7439,40.346 70.7415,40.3308 70.74,40.3143 70.74,40.2963 c 1e-4,-0.0304 0.0029,-0.0544 0.0067,-0.0724 0.0047,-0.0169 0.0149,-0.0342 0.0314,-0.0501 0.0163,-0.0158 0.0441,-0.0342 0.0851,-0.0553 0.0391,-0.0212 0.0853,-0.0406 0.1375,-0.0586 0.0523,-0.0169 0.1094,-0.0314 0.1722,-0.0441 0.0607,-0.0109 0.1235,-0.0169 0.1873,-0.0169 0.1175,0 0.2177,0.0144 0.2999,0.0402 0.0826,0.0271 0.1496,0.066 0.2,0.1175 0.0512,0.0522 0.0889,0.116 0.1118,0.1926 0.0234,0.0762 0.035,0.1651 0.035,0.2674 z"
   id="path64" />
  <path
   class="fil6"
   d="m 73.5965,41.2541 c 0,-0.0484 -0.0085,-0.0911 -0.0258,-0.1288 -0.0165,-0.0363 -0.0448,-0.0674 -0.0804,-0.091 -0.0374,-0.0254 -0.0843,-0.0427 -0.1429,-0.0554 -0.0574,-0.0117 -0.1249,-0.018 -0.2042,-0.018 h -0.2935 v 0.581 c 0.0229,0.0039 0.0472,0.0064 0.0723,0.0081 0.0254,0.0021 0.0497,0.0039 0.0765,0.0057 0.0262,0.0021 0.0522,0.0032 0.078,0.0046 0.0261,0.001 0.0497,0.0021 0.0716,0.0021 0.0794,0 0.1468,-0.0078 0.2025,-0.0219 0.0561,-0.0134 0.1023,-0.0342 0.1397,-0.0607 0.0357,-0.0264 0.0639,-0.0592 0.0804,-0.0973 0.0173,-0.0381 0.0258,-0.0812 0.0258,-0.1284 z m -0.055,-0.767 c 0,-0.0399 -0.0064,-0.0762 -0.0212,-0.1076 -0.0148,-0.0314 -0.0388,-0.0575 -0.0723,-0.0797 -0.0332,-0.0219 -0.0766,-0.0388 -0.1288,-0.0494 -0.0536,-0.0106 -0.1178,-0.0162 -0.193,-0.0162 -0.0564,0 -0.109,0.0024 -0.1566,0.0042 -0.0472,0.0035 -0.0868,0.0067 -0.1199,0.0106 v 0.5098 h 0.3065 c 0.1242,0 0.2198,-0.0237 0.2865,-0.0706 0.066,-0.0462 0.0988,-0.1132 0.0988,-0.2011 z m 0.363,0.7617 c 0,0.086 -0.0163,0.1626 -0.0498,0.2303 -0.0328,0.0674 -0.0811,0.1238 -0.145,0.1694 -0.0649,0.0455 -0.145,0.0793 -0.2413,0.1037 -0.0952,0.024 -0.2074,0.0353 -0.3348,0.0353 -0.0394,0 -0.079,0 -0.1164,-8e-4 -0.0373,-7e-4 -0.0744,-0.0014 -0.1093,-0.0031 -0.0353,-0.0018 -0.0702,-0.005 -0.1045,-0.0067 -0.0345,-0.0021 -0.0702,-0.0057 -0.1026,-0.0089 -0.0491,-0.0063 -0.0854,-0.0222 -0.1076,-0.0486 -0.0233,-0.0261 -0.0349,-0.0646 -0.0349,-0.1154 v -1.4115 c 0,-0.0504 0.0109,-0.0882 0.0331,-0.1146 0.023,-0.0272 0.0575,-0.0427 0.1034,-0.0476 0.0314,-0.0039 0.0656,-0.0074 0.1012,-0.0092 0.0357,-0.0025 0.0724,-0.0053 0.1105,-0.0064 0.037,-0.0014 0.0765,-0.0035 0.1157,-0.0042 0.0409,-0.0014 0.0808,-0.0021 0.1227,-0.0021 0.1179,0 0.2188,0.0095 0.3062,0.0289 0.0854,0.0194 0.1581,0.048 0.2138,0.0854 0.0576,0.0381 0.0999,0.0843 0.127,0.1383 0.0279,0.055 0.0409,0.1182 0.0409,0.188 0,0.0921 -0.0243,0.1711 -0.0737,0.2371 -0.0486,0.0652 -0.121,0.1118 -0.2176,0.14 0.1203,0.0254 0.2109,0.0748 0.2716,0.1478 0.0607,0.0727 0.0914,0.1644 0.0914,0.2749 z"
   id="path65" />
 </g>
</svg>
